0
SECTION
2
HEADER
9
$INSUNITS
70
4
0
ENDSEC
0
SECTION
2
TABLES
0
TABLE
2
LTYPE
0
LTYPE
72
65
70
64
2
CONTINUOUS
3
______
73
0
40
0
0
ENDTAB
0
TABLE
2
LAYER
0
ENDTAB
0
ENDSEC
0
SECTION
2
ENTITIES
0
LINE
8
BOTTOM_outsideCutPath
10
345.6291165
20
150.0293091
11
332.5559513
21
150.0293091
0
LINE
8
BOTTOM_outsideCutPath
10
332.5559513
20
150.0293091
11
332.5559513
21
153.0293091
0
LINE
8
BOTTOM_outsideCutPath
10
332.5559513
20
153.0293091
11
326.5559513
21
153.0293091
0
LINE
8
BOTTOM_outsideCutPath
10
326.5559513
20
153.0293091
11
326.5559513
21
150.0293091
0
LINE
8
BOTTOM_outsideCutPath
10
326.5559513
20
150.0293091
11
320.5559513
21
150.0293091
0
LINE
8
BOTTOM_outsideCutPath
10
320.5559513
20
150.0293091
11
320.5559513
21
153.0293091
0
LINE
8
BOTTOM_outsideCutPath
10
320.5559513
20
153.0293091
11
314.5559513
21
153.0293091
0
LINE
8
BOTTOM_outsideCutPath
10
314.5559513
20
153.0293091
11
314.5559513
21
150.0293091
0
LINE
8
BOTTOM_outsideCutPath
10
314.5559513
20
150.0293091
11
308.5559513
21
150.0293091
0
LINE
8
BOTTOM_outsideCutPath
10
308.5559513
20
150.0293091
11
308.5559513
21
153.0293091
0
LINE
8
BOTTOM_outsideCutPath
10
308.5559513
20
153.0293091
11
302.5559513
21
153.0293091
0
LINE
8
BOTTOM_outsideCutPath
10
302.5559513
20
153.0293091
11
302.5559513
21
150.0293091
0
LINE
8
BOTTOM_outsideCutPath
10
302.5559513
20
150.0293091
11
296.5559513
21
150.0293091
0
LINE
8
BOTTOM_outsideCutPath
10
296.5559513
20
150.0293091
11
296.5559513
21
153.0293091
0
LINE
8
BOTTOM_outsideCutPath
10
296.5559513
20
153.0293091
11
290.5559513
21
153.0293091
0
LINE
8
BOTTOM_outsideCutPath
10
290.5559513
20
153.0293091
11
290.5559513
21
150.0293091
0
LINE
8
BOTTOM_outsideCutPath
10
290.5559513
20
150.0293091
11
284.5559513
21
150.0293091
0
LINE
8
BOTTOM_outsideCutPath
10
284.5559513
20
150.0293091
11
284.5559513
21
153.0293091
0
LINE
8
BOTTOM_outsideCutPath
10
284.5559513
20
153.0293091
11
278.5559513
21
153.0293091
0
LINE
8
BOTTOM_outsideCutPath
10
278.5559513
20
153.0293091
11
278.5559513
21
150.0293091
0
LINE
8
BOTTOM_outsideCutPath
10
278.5559513
20
150.0293091
11
272.5559513
21
150.0293091
0
LINE
8
BOTTOM_outsideCutPath
10
272.5559513
20
150.0293091
11
272.5559513
21
153.0293091
0
LINE
8
BOTTOM_outsideCutPath
10
272.5559513
20
153.0293091
11
266.5559513
21
153.0293091
0
LINE
8
BOTTOM_outsideCutPath
10
266.5559513
20
153.0293091
11
266.5559513
21
150.0293091
0
LINE
8
BOTTOM_outsideCutPath
10
266.5559513
20
150.0293091
11
260.5559513
21
150.0293091
0
LINE
8
BOTTOM_outsideCutPath
10
260.5559513
20
150.0293091
11
260.5559513
21
153.0293091
0
LINE
8
BOTTOM_outsideCutPath
10
260.5559513
20
153.0293091
11
254.5559513
21
153.0293091
0
LINE
8
BOTTOM_outsideCutPath
10
254.5559513
20
153.0293091
11
254.5559513
21
150.0293091
0
LINE
8
BOTTOM_outsideCutPath
10
254.5559513
20
150.0293091
11
248.5559513
21
150.0293091
0
LINE
8
BOTTOM_outsideCutPath
10
248.5559513
20
150.0293091
11
248.5559513
21
153.0293091
0
LINE
8
BOTTOM_outsideCutPath
10
248.5559513
20
153.0293091
11
242.5559513
21
153.0293091
0
LINE
8
BOTTOM_outsideCutPath
10
242.5559513
20
153.0293091
11
242.5559513
21
150.0293091
0
LINE
8
BOTTOM_outsideCutPath
10
242.5559513
20
150.0293091
11
236.5559513
21
150.0293091
0
LINE
8
BOTTOM_outsideCutPath
10
236.5559513
20
150.0293091
11
236.5559513
21
153.0293091
0
LINE
8
BOTTOM_outsideCutPath
10
236.5559513
20
153.0293091
11
230.5559513
21
153.0293091
0
LINE
8
BOTTOM_outsideCutPath
10
230.5559513
20
153.0293091
11
230.5559513
21
150.0293091
0
LINE
8
BOTTOM_outsideCutPath
10
230.5559513
20
150.0293091
11
224.5559513
21
150.0293091
0
LINE
8
BOTTOM_outsideCutPath
10
224.5559513
20
150.0293091
11
224.5559513
21
153.0293091
0
LINE
8
BOTTOM_outsideCutPath
10
224.5559513
20
153.0293091
11
218.5559513
21
153.0293091
0
LINE
8
BOTTOM_outsideCutPath
10
218.5559513
20
153.0293091
11
218.5559513
21
150.0293091
0
LINE
8
BOTTOM_outsideCutPath
10
218.5559513
20
150.0293091
11
212.5559513
21
150.0293091
0
LINE
8
BOTTOM_outsideCutPath
10
212.5559513
20
150.0293091
11
212.5559513
21
153.0293091
0
LINE
8
BOTTOM_outsideCutPath
10
212.5559513
20
153.0293091
11
206.5559513
21
153.0293091
0
LINE
8
BOTTOM_outsideCutPath
10
206.5559513
20
153.0293091
11
206.5559513
21
150.0293091
0
LINE
8
BOTTOM_outsideCutPath
10
206.5559513
20
150.0293091
11
200.5559513
21
150.0293091
0
LINE
8
BOTTOM_outsideCutPath
10
200.5559513
20
150.0293091
11
200.5559513
21
153.0293091
0
LINE
8
BOTTOM_outsideCutPath
10
200.5559513
20
153.0293091
11
194.5559513
21
153.0293091
0
LINE
8
BOTTOM_outsideCutPath
10
194.5559513
20
153.0293091
11
194.5559513
21
150.0293091
0
LINE
8
BOTTOM_outsideCutPath
10
194.5559513
20
150.0293091
11
188.5559513
21
150.0293091
0
LINE
8
BOTTOM_outsideCutPath
10
188.5559513
20
150.0293091
11
188.5559513
21
153.0293091
0
LINE
8
BOTTOM_outsideCutPath
10
188.5559513
20
153.0293091
11
182.5559513
21
153.0293091
0
LINE
8
BOTTOM_outsideCutPath
10
182.5559513
20
153.0293091
11
182.5559513
21
150.0293091
0
LINE
8
BOTTOM_outsideCutPath
10
182.5559513
20
150.0293091
11
176.5559513
21
150.0293091
0
LINE
8
BOTTOM_outsideCutPath
10
176.5559513
20
150.0293091
11
176.5559513
21
153.0293091
0
LINE
8
BOTTOM_outsideCutPath
10
176.5559513
20
153.0293091
11
170.5559513
21
153.0293091
0
LINE
8
BOTTOM_outsideCutPath
10
170.5559513
20
153.0293091
11
170.5559513
21
150.0293091
0
LINE
8
BOTTOM_outsideCutPath
10
170.5559513
20
150.0293091
11
164.5559513
21
150.0293091
0
LINE
8
BOTTOM_outsideCutPath
10
164.5559513
20
150.0293091
11
164.5559513
21
153.0293091
0
LINE
8
BOTTOM_outsideCutPath
10
164.5559513
20
153.0293091
11
158.5559513
21
153.0293091
0
LINE
8
BOTTOM_outsideCutPath
10
158.5559513
20
153.0293091
11
158.5559513
21
150.0293091
0
LINE
8
BOTTOM_outsideCutPath
10
158.5559513
20
150.0293091
11
152.5559513
21
150.0293091
0
LINE
8
BOTTOM_outsideCutPath
10
152.5559513
20
150.0293091
11
152.5559513
21
153.0293091
0
LINE
8
BOTTOM_outsideCutPath
10
152.5559513
20
153.0293091
11
146.5559513
21
153.0293091
0
LINE
8
BOTTOM_outsideCutPath
10
146.5559513
20
153.0293091
11
146.5559513
21
150.0293091
0
LINE
8
BOTTOM_outsideCutPath
10
146.5559513
20
150.0293091
11
140.5559513
21
150.0293091
0
LINE
8
BOTTOM_outsideCutPath
10
140.5559513
20
150.0293091
11
140.5559513
21
153.0293091
0
LINE
8
BOTTOM_outsideCutPath
10
140.5559513
20
153.0293091
11
134.5559513
21
153.0293091
0
LINE
8
BOTTOM_outsideCutPath
10
134.5559513
20
153.0293091
11
134.5559513
21
150.0293091
0
LINE
8
BOTTOM_outsideCutPath
10
134.5559513
20
150.0293091
11
128.5559513
21
150.0293091
0
LINE
8
BOTTOM_outsideCutPath
10
128.5559513
20
150.0293091
11
128.5559513
21
153.0293091
0
LINE
8
BOTTOM_outsideCutPath
10
128.5559513
20
153.0293091
11
122.5559513
21
153.0293091
0
LINE
8
BOTTOM_outsideCutPath
10
122.5559513
20
153.0293091
11
122.5559513
21
150.0293091
0
LINE
8
BOTTOM_outsideCutPath
10
122.5559513
20
150.0293091
11
116.5559513
21
150.0293091
0
LINE
8
BOTTOM_outsideCutPath
10
116.5559513
20
150.0293091
11
116.5559513
21
153.0293091
0
LINE
8
BOTTOM_outsideCutPath
10
116.5559513
20
153.0293091
11
110.5559513
21
153.0293091
0
LINE
8
BOTTOM_outsideCutPath
10
110.5559513
20
153.0293091
11
110.5559513
21
150.0293091
0
LINE
8
BOTTOM_outsideCutPath
10
110.5559513
20
150.0293091
11
104.5559513
21
150.0293091
0
LINE
8
BOTTOM_outsideCutPath
10
104.5559513
20
150.0293091
11
104.5559513
21
153.0293091
0
LINE
8
BOTTOM_outsideCutPath
10
104.5559513
20
153.0293091
11
98.5559513
21
153.0293091
0
LINE
8
BOTTOM_outsideCutPath
10
98.5559513
20
153.0293091
11
98.5559513
21
150.0293091
0
LINE
8
BOTTOM_outsideCutPath
10
98.5559513
20
150.0293091
11
92.5559513
21
150.0293091
0
LINE
8
BOTTOM_outsideCutPath
10
92.5559513
20
150.0293091
11
92.5559513
21
153.0293091
0
LINE
8
BOTTOM_outsideCutPath
10
92.5559513
20
153.0293091
11
86.5559513
21
153.0293091
0
LINE
8
BOTTOM_outsideCutPath
10
86.5559513
20
153.0293091
11
86.5559513
21
150.0293091
0
LINE
8
BOTTOM_outsideCutPath
10
86.5559513
20
150.0293091
11
80.5559513
21
150.0293091
0
LINE
8
BOTTOM_outsideCutPath
10
80.5559513
20
150.0293091
11
80.5559513
21
153.0293091
0
LINE
8
BOTTOM_outsideCutPath
10
80.5559513
20
153.0293091
11
74.5559513
21
153.0293091
0
LINE
8
BOTTOM_outsideCutPath
10
74.5559513
20
153.0293091
11
74.5559513
21
150.0293091
0
LINE
8
BOTTOM_outsideCutPath
10
74.5559513
20
150.0293091
11
68.5559513
21
150.0293091
0
LINE
8
BOTTOM_outsideCutPath
10
68.5559513
20
150.0293091
11
68.5559513
21
153.0293091
0
LINE
8
BOTTOM_outsideCutPath
10
68.5559513
20
153.0293091
11
62.5559513
21
153.0293091
0
LINE
8
BOTTOM_outsideCutPath
10
62.5559513
20
153.0293091
11
62.5559513
21
150.0293091
0
LINE
8
BOTTOM_outsideCutPath
10
62.5559513
20
150.0293091
11
56.5559513
21
150.0293091
0
LINE
8
BOTTOM_outsideCutPath
10
56.5559513
20
150.0293091
11
56.5559513
21
153.0293091
0
LINE
8
BOTTOM_outsideCutPath
10
56.5559513
20
153.0293091
11
50.5559513
21
153.0293091
0
LINE
8
BOTTOM_outsideCutPath
10
50.5559513
20
153.0293091
11
50.5559513
21
150.0293091
0
LINE
8
BOTTOM_outsideCutPath
10
50.5559513
20
150.0293091
11
37.482786
21
150.0293091
0
LINE
8
BOTTOM_outsideCutPath
10
37.482786
20
150.0293091
11
34.9849755
21
149.9387238
0
LINE
8
BOTTOM_outsideCutPath
10
34.9849755
20
149.9387238
11
32.5002884
21
149.667444
0
LINE
8
BOTTOM_outsideCutPath
10
32.5002884
20
149.667444
11
30.041779
21
149.216895
0
LINE
8
BOTTOM_outsideCutPath
10
30.041779
20
149.216895
11
27.6223642
21
148.5894438
0
LINE
8
BOTTOM_outsideCutPath
10
27.6223642
20
148.5894438
11
25.2547555
21
147.7883872
0
LINE
8
BOTTOM_outsideCutPath
10
25.2547555
20
147.7883872
11
22.9513921
21
146.8179337
0
LINE
8
BOTTOM_outsideCutPath
10
22.9513921
20
146.8179337
11
20.7243758
21
145.6831821
0
LINE
8
BOTTOM_outsideCutPath
10
20.7243758
20
145.6831821
11
18.5854071
21
144.3900943
0
LINE
8
BOTTOM_outsideCutPath
10
18.5854071
20
144.3900943
11
16.5457242
21
142.9454642
0
LINE
8
BOTTOM_outsideCutPath
10
16.5457242
20
142.9454642
11
14.6160433
21
141.3568816
0
LINE
8
BOTTOM_outsideCutPath
10
14.6160433
20
141.3568816
11
12.8065029
21
139.632693
0
LINE
8
BOTTOM_outsideCutPath
10
12.8065029
20
139.632693
11
11.1266102
21
137.7819571
0
LINE
8
BOTTOM_outsideCutPath
10
11.1266102
20
137.7819571
11
9.5851912
21
135.8143976
0
LINE
8
BOTTOM_outsideCutPath
10
9.5851912
20
135.8143976
11
8.1903446
21
133.7403519
0
LINE
8
BOTTOM_outsideCutPath
10
8.1903446
20
133.7403519
11
6.9493986
21
131.5707169
0
LINE
8
BOTTOM_outsideCutPath
10
6.9493986
20
131.5707169
11
5.8688733
21
129.3168917
0
LINE
8
BOTTOM_outsideCutPath
10
5.8688733
20
129.3168917
11
4.9544455
21
126.9907179
0
LINE
8
BOTTOM_outsideCutPath
10
4.9544455
20
126.9907179
11
4.2109197
21
124.6044169
0
LINE
8
BOTTOM_outsideCutPath
10
4.2109197
20
124.6044169
11
3.6422022
21
122.1705264
0
LINE
8
BOTTOM_outsideCutPath
10
3.6422022
20
122.1705264
11
3.2512812
21
119.7018337
0
LINE
8
BOTTOM_outsideCutPath
10
3.2512812
20
119.7018337
11
3.0402104
21
117.2113093
0
LINE
8
BOTTOM_outsideCutPath
10
3.0402104
20
117.2113093
11
3
21
115.5465231
0
LINE
8
BOTTOM_outsideCutPath
10
3
20
115.5465231
11
3
21
109.5146545
0
LINE
8
BOTTOM_outsideCutPath
10
3
20
109.5146545
11
0
21
109.5146545
0
LINE
8
BOTTOM_outsideCutPath
10
0
20
109.5146545
11
0
21
103.5146545
0
LINE
8
BOTTOM_outsideCutPath
10
0
20
103.5146545
11
3
21
103.5146545
0
LINE
8
BOTTOM_outsideCutPath
10
3
20
103.5146545
11
3
21
97.5146545
0
LINE
8
BOTTOM_outsideCutPath
10
3
20
97.5146545
11
0
21
97.5146545
0
LINE
8
BOTTOM_outsideCutPath
10
0
20
97.5146545
11
0
21
91.5146545
0
LINE
8
BOTTOM_outsideCutPath
10
0
20
91.5146545
11
3
21
91.5146545
0
LINE
8
BOTTOM_outsideCutPath
10
3
20
91.5146545
11
3
21
85.5146545
0
LINE
8
BOTTOM_outsideCutPath
10
3
20
85.5146545
11
0
21
85.5146545
0
LINE
8
BOTTOM_outsideCutPath
10
0
20
85.5146545
11
0
21
79.5146545
0
LINE
8
BOTTOM_outsideCutPath
10
0
20
79.5146545
11
3
21
79.5146545
0
LINE
8
BOTTOM_outsideCutPath
10
3
20
79.5146545
11
3
21
73.5146545
0
LINE
8
BOTTOM_outsideCutPath
10
3
20
73.5146545
11
0
21
73.5146545
0
LINE
8
BOTTOM_outsideCutPath
10
0
20
73.5146545
11
0
21
67.5146545
0
LINE
8
BOTTOM_outsideCutPath
10
0
20
67.5146545
11
3
21
67.5146545
0
LINE
8
BOTTOM_outsideCutPath
10
3
20
67.5146545
11
3
21
61.5146545
0
LINE
8
BOTTOM_outsideCutPath
10
3
20
61.5146545
11
0
21
61.5146545
0
LINE
8
BOTTOM_outsideCutPath
10
0
20
61.5146545
11
0
21
55.5146545
0
LINE
8
BOTTOM_outsideCutPath
10
0
20
55.5146545
11
3
21
55.5146545
0
LINE
8
BOTTOM_outsideCutPath
10
3
20
55.5146545
11
3
21
49.5146545
0
LINE
8
BOTTOM_outsideCutPath
10
3
20
49.5146545
11
0
21
49.5146545
0
LINE
8
BOTTOM_outsideCutPath
10
0
20
49.5146545
11
0
21
43.5146545
0
LINE
8
BOTTOM_outsideCutPath
10
0
20
43.5146545
11
3
21
43.5146545
0
LINE
8
BOTTOM_outsideCutPath
10
3
20
43.5146545
11
3
21
37.482786
0
LINE
8
BOTTOM_outsideCutPath
10
3
20
37.482786
11
3.0905852
21
34.9849755
0
LINE
8
BOTTOM_outsideCutPath
10
3.0905852
20
34.9849755
11
3.361865
21
32.5002884
0
LINE
8
BOTTOM_outsideCutPath
10
3.361865
20
32.5002884
11
3.8124141
21
30.041779
0
LINE
8
BOTTOM_outsideCutPath
10
3.8124141
20
30.041779
11
4.4398652
21
27.6223642
0
LINE
8
BOTTOM_outsideCutPath
10
4.4398652
20
27.6223642
11
5.2409219
21
25.2547555
0
LINE
8
BOTTOM_outsideCutPath
10
5.2409219
20
25.2547555
11
6.2113754
21
22.9513921
0
LINE
8
BOTTOM_outsideCutPath
10
6.2113754
20
22.9513921
11
7.346127
21
20.7243758
0
LINE
8
BOTTOM_outsideCutPath
10
7.346127
20
20.7243758
11
8.6392147
21
18.5854071
0
LINE
8
BOTTOM_outsideCutPath
10
8.6392147
20
18.5854071
11
10.0838449
21
16.5457242
0
LINE
8
BOTTOM_outsideCutPath
10
10.0838449
20
16.5457242
11
11.6724274
21
14.6160433
0
LINE
8
BOTTOM_outsideCutPath
10
11.6724274
20
14.6160433
11
13.3966161
21
12.8065029
0
LINE
8
BOTTOM_outsideCutPath
10
13.3966161
20
12.8065029
11
15.247352
21
11.1266102
0
LINE
8
BOTTOM_outsideCutPath
10
15.247352
20
11.1266102
11
17.2149115
21
9.5851912
0
LINE
8
BOTTOM_outsideCutPath
10
17.2149115
20
9.5851912
11
19.2889572
21
8.1903446
0
LINE
8
BOTTOM_outsideCutPath
10
19.2889572
20
8.1903446
11
21.4585922
21
6.9493986
0
LINE
8
BOTTOM_outsideCutPath
10
21.4585922
20
6.9493986
11
23.7124173
21
5.8688733
0
LINE
8
BOTTOM_outsideCutPath
10
23.7124173
20
5.8688733
11
26.0385912
21
4.9544455
0
LINE
8
BOTTOM_outsideCutPath
10
26.0385912
20
4.9544455
11
28.4248921
21
4.2109197
0
LINE
8
BOTTOM_outsideCutPath
10
28.4248921
20
4.2109197
11
30.8587827
21
3.6422022
0
LINE
8
BOTTOM_outsideCutPath
10
30.8587827
20
3.6422022
11
33.3274754
21
3.2512812
0
LINE
8
BOTTOM_outsideCutPath
10
33.3274754
20
3.2512812
11
35.8179998
21
3.0402104
0
LINE
8
BOTTOM_outsideCutPath
10
35.8179998
20
3.0402104
11
37.482786
21
3
0
LINE
8
BOTTOM_outsideCutPath
10
37.482786
20
3
11
45.5193686
21
3
0
LINE
8
BOTTOM_outsideCutPath
10
45.5193686
20
3
11
45.5193686
21
0
0
LINE
8
BOTTOM_outsideCutPath
10
45.5193686
20
0
11
51.5193686
21
0
0
LINE
8
BOTTOM_outsideCutPath
10
51.5193686
20
0
11
51.5193686
21
3
0
LINE
8
BOTTOM_outsideCutPath
10
51.5193686
20
3
11
57.5193686
21
3
0
LINE
8
BOTTOM_outsideCutPath
10
57.5193686
20
3
11
57.5193686
21
0
0
LINE
8
BOTTOM_outsideCutPath
10
57.5193686
20
0
11
63.5193686
21
0
0
LINE
8
BOTTOM_outsideCutPath
10
63.5193686
20
0
11
63.5193686
21
3
0
LINE
8
BOTTOM_outsideCutPath
10
63.5193686
20
3
11
69.5193686
21
3
0
LINE
8
BOTTOM_outsideCutPath
10
69.5193686
20
3
11
69.5193686
21
0
0
LINE
8
BOTTOM_outsideCutPath
10
69.5193686
20
0
11
75.5193686
21
0
0
LINE
8
BOTTOM_outsideCutPath
10
75.5193686
20
0
11
75.5193686
21
3
0
LINE
8
BOTTOM_outsideCutPath
10
75.5193686
20
3
11
81.5193686
21
3
0
LINE
8
BOTTOM_outsideCutPath
10
81.5193686
20
3
11
81.5193686
21
0
0
LINE
8
BOTTOM_outsideCutPath
10
81.5193686
20
0
11
87.5193686
21
0
0
LINE
8
BOTTOM_outsideCutPath
10
87.5193686
20
0
11
87.5193686
21
3
0
LINE
8
BOTTOM_outsideCutPath
10
87.5193686
20
3
11
93.5193686
21
3
0
LINE
8
BOTTOM_outsideCutPath
10
93.5193686
20
3
11
93.5193686
21
0
0
LINE
8
BOTTOM_outsideCutPath
10
93.5193686
20
0
11
99.5193686
21
0
0
LINE
8
BOTTOM_outsideCutPath
10
99.5193686
20
0
11
99.5193686
21
3
0
LINE
8
BOTTOM_outsideCutPath
10
99.5193686
20
3
11
105.5193686
21
3
0
LINE
8
BOTTOM_outsideCutPath
10
105.5193686
20
3
11
105.5193686
21
0
0
LINE
8
BOTTOM_outsideCutPath
10
105.5193686
20
0
11
111.5193686
21
0
0
LINE
8
BOTTOM_outsideCutPath
10
111.5193686
20
0
11
111.5193686
21
3
0
LINE
8
BOTTOM_outsideCutPath
10
111.5193686
20
3
11
117.5193686
21
3
0
LINE
8
BOTTOM_outsideCutPath
10
117.5193686
20
3
11
117.5193686
21
0
0
LINE
8
BOTTOM_outsideCutPath
10
117.5193686
20
0
11
123.5193686
21
0
0
LINE
8
BOTTOM_outsideCutPath
10
123.5193686
20
0
11
123.5193686
21
3
0
LINE
8
BOTTOM_outsideCutPath
10
123.5193686
20
3
11
129.5193686
21
3
0
LINE
8
BOTTOM_outsideCutPath
10
129.5193686
20
3
11
129.5193686
21
0
0
LINE
8
BOTTOM_outsideCutPath
10
129.5193686
20
0
11
135.5193686
21
0
0
LINE
8
BOTTOM_outsideCutPath
10
135.5193686
20
0
11
135.5193686
21
3
0
LINE
8
BOTTOM_outsideCutPath
10
135.5193686
20
3
11
141.5193686
21
3
0
LINE
8
BOTTOM_outsideCutPath
10
141.5193686
20
3
11
141.5193686
21
0
0
LINE
8
BOTTOM_outsideCutPath
10
141.5193686
20
0
11
147.5193686
21
0
0
LINE
8
BOTTOM_outsideCutPath
10
147.5193686
20
0
11
147.5193686
21
3
0
LINE
8
BOTTOM_outsideCutPath
10
147.5193686
20
3
11
153.5193686
21
3
0
LINE
8
BOTTOM_outsideCutPath
10
153.5193686
20
3
11
153.5193686
21
0
0
LINE
8
BOTTOM_outsideCutPath
10
153.5193686
20
0
11
159.5193686
21
0
0
LINE
8
BOTTOM_outsideCutPath
10
159.5193686
20
0
11
159.5193686
21
3
0
LINE
8
BOTTOM_outsideCutPath
10
159.5193686
20
3
11
165.5193686
21
3
0
LINE
8
BOTTOM_outsideCutPath
10
165.5193686
20
3
11
165.5193686
21
0
0
LINE
8
BOTTOM_outsideCutPath
10
165.5193686
20
0
11
171.5193686
21
0
0
LINE
8
BOTTOM_outsideCutPath
10
171.5193686
20
0
11
171.5193686
21
3
0
LINE
8
BOTTOM_outsideCutPath
10
171.5193686
20
3
11
177.5193686
21
3
0
LINE
8
BOTTOM_outsideCutPath
10
177.5193686
20
3
11
177.5193686
21
0
0
LINE
8
BOTTOM_outsideCutPath
10
177.5193686
20
0
11
183.5193686
21
0
0
LINE
8
BOTTOM_outsideCutPath
10
183.5193686
20
0
11
183.5193686
21
3
0
LINE
8
BOTTOM_outsideCutPath
10
183.5193686
20
3
11
191.5559513
21
3
0
LINE
8
BOTTOM_outsideCutPath
10
191.5559513
20
3
11
199.5925339
21
3
0
LINE
8
BOTTOM_outsideCutPath
10
199.5925339
20
3
11
199.5925339
21
0
0
LINE
8
BOTTOM_outsideCutPath
10
199.5925339
20
0
11
205.5925339
21
0
0
LINE
8
BOTTOM_outsideCutPath
10
205.5925339
20
0
11
205.5925339
21
3
0
LINE
8
BOTTOM_outsideCutPath
10
205.5925339
20
3
11
211.5925339
21
3
0
LINE
8
BOTTOM_outsideCutPath
10
211.5925339
20
3
11
211.5925339
21
0
0
LINE
8
BOTTOM_outsideCutPath
10
211.5925339
20
0
11
217.5925339
21
0
0
LINE
8
BOTTOM_outsideCutPath
10
217.5925339
20
0
11
217.5925339
21
3
0
LINE
8
BOTTOM_outsideCutPath
10
217.5925339
20
3
11
223.5925339
21
3
0
LINE
8
BOTTOM_outsideCutPath
10
223.5925339
20
3
11
223.5925339
21
0
0
LINE
8
BOTTOM_outsideCutPath
10
223.5925339
20
0
11
229.5925339
21
0
0
LINE
8
BOTTOM_outsideCutPath
10
229.5925339
20
0
11
229.5925339
21
3
0
LINE
8
BOTTOM_outsideCutPath
10
229.5925339
20
3
11
235.5925339
21
3
0
LINE
8
BOTTOM_outsideCutPath
10
235.5925339
20
3
11
235.5925339
21
0
0
LINE
8
BOTTOM_outsideCutPath
10
235.5925339
20
0
11
241.5925339
21
0
0
LINE
8
BOTTOM_outsideCutPath
10
241.5925339
20
0
11
241.5925339
21
3
0
LINE
8
BOTTOM_outsideCutPath
10
241.5925339
20
3
11
247.5925339
21
3
0
LINE
8
BOTTOM_outsideCutPath
10
247.5925339
20
3
11
247.5925339
21
0
0
LINE
8
BOTTOM_outsideCutPath
10
247.5925339
20
0
11
253.5925339
21
0
0
LINE
8
BOTTOM_outsideCutPath
10
253.5925339
20
0
11
253.5925339
21
3
0
LINE
8
BOTTOM_outsideCutPath
10
253.5925339
20
3
11
259.5925339
21
3
0
LINE
8
BOTTOM_outsideCutPath
10
259.5925339
20
3
11
259.5925339
21
0
0
LINE
8
BOTTOM_outsideCutPath
10
259.5925339
20
0
11
265.5925339
21
0
0
LINE
8
BOTTOM_outsideCutPath
10
265.5925339
20
0
11
265.5925339
21
3
0
LINE
8
BOTTOM_outsideCutPath
10
265.5925339
20
3
11
271.5925339
21
3
0
LINE
8
BOTTOM_outsideCutPath
10
271.5925339
20
3
11
271.5925339
21
0
0
LINE
8
BOTTOM_outsideCutPath
10
271.5925339
20
0
11
277.5925339
21
0
0
LINE
8
BOTTOM_outsideCutPath
10
277.5925339
20
0
11
277.5925339
21
3
0
LINE
8
BOTTOM_outsideCutPath
10
277.5925339
20
3
11
283.5925339
21
3
0
LINE
8
BOTTOM_outsideCutPath
10
283.5925339
20
3
11
283.5925339
21
0
0
LINE
8
BOTTOM_outsideCutPath
10
283.5925339
20
0
11
289.5925339
21
0
0
LINE
8
BOTTOM_outsideCutPath
10
289.5925339
20
0
11
289.5925339
21
3
0
LINE
8
BOTTOM_outsideCutPath
10
289.5925339
20
3
11
295.5925339
21
3
0
LINE
8
BOTTOM_outsideCutPath
10
295.5925339
20
3
11
295.5925339
21
0
0
LINE
8
BOTTOM_outsideCutPath
10
295.5925339
20
0
11
301.5925339
21
0
0
LINE
8
BOTTOM_outsideCutPath
10
301.5925339
20
0
11
301.5925339
21
3
0
LINE
8
BOTTOM_outsideCutPath
10
301.5925339
20
3
11
307.5925339
21
3
0
LINE
8
BOTTOM_outsideCutPath
10
307.5925339
20
3
11
307.5925339
21
0
0
LINE
8
BOTTOM_outsideCutPath
10
307.5925339
20
0
11
313.5925339
21
0
0
LINE
8
BOTTOM_outsideCutPath
10
313.5925339
20
0
11
313.5925339
21
3
0
LINE
8
BOTTOM_outsideCutPath
10
313.5925339
20
3
11
319.5925339
21
3
0
LINE
8
BOTTOM_outsideCutPath
10
319.5925339
20
3
11
319.5925339
21
0
0
LINE
8
BOTTOM_outsideCutPath
10
319.5925339
20
0
11
325.5925339
21
0
0
LINE
8
BOTTOM_outsideCutPath
10
325.5925339
20
0
11
325.5925339
21
3
0
LINE
8
BOTTOM_outsideCutPath
10
325.5925339
20
3
11
331.5925339
21
3
0
LINE
8
BOTTOM_outsideCutPath
10
331.5925339
20
3
11
331.5925339
21
0
0
LINE
8
BOTTOM_outsideCutPath
10
331.5925339
20
0
11
337.5925339
21
0
0
LINE
8
BOTTOM_outsideCutPath
10
337.5925339
20
0
11
337.5925339
21
3
0
LINE
8
BOTTOM_outsideCutPath
10
337.5925339
20
3
11
345.6291165
21
3
0
LINE
8
BOTTOM_outsideCutPath
10
345.6291165
20
3
11
348.126927
21
3.0905852
0
LINE
8
BOTTOM_outsideCutPath
10
348.126927
20
3.0905852
11
350.6116142
21
3.361865
0
LINE
8
BOTTOM_outsideCutPath
10
350.6116142
20
3.361865
11
353.0701235
21
3.8124141
0
LINE
8
BOTTOM_outsideCutPath
10
353.0701235
20
3.8124141
11
355.4895383
21
4.4398652
0
LINE
8
BOTTOM_outsideCutPath
10
355.4895383
20
4.4398652
11
357.857147
21
5.2409219
0
LINE
8
BOTTOM_outsideCutPath
10
357.857147
20
5.2409219
11
360.1605104
21
6.2113754
0
LINE
8
BOTTOM_outsideCutPath
10
360.1605104
20
6.2113754
11
362.3875268
21
7.346127
0
LINE
8
BOTTOM_outsideCutPath
10
362.3875268
20
7.346127
11
364.5264954
21
8.6392147
0
LINE
8
BOTTOM_outsideCutPath
10
364.5264954
20
8.6392147
11
366.5661784
21
10.0838449
0
LINE
8
BOTTOM_outsideCutPath
10
366.5661784
20
10.0838449
11
368.4958592
21
11.6724274
0
LINE
8
BOTTOM_outsideCutPath
10
368.4958592
20
11.6724274
11
370.3053997
21
13.3966161
0
LINE
8
BOTTOM_outsideCutPath
10
370.3053997
20
13.3966161
11
371.9852924
21
15.247352
0
LINE
8
BOTTOM_outsideCutPath
10
371.9852924
20
15.247352
11
373.5267113
21
17.2149115
0
LINE
8
BOTTOM_outsideCutPath
10
373.5267113
20
17.2149115
11
374.921558
21
19.2889572
0
LINE
8
BOTTOM_outsideCutPath
10
374.921558
20
19.2889572
11
376.1625039
21
21.4585922
0
LINE
8
BOTTOM_outsideCutPath
10
376.1625039
20
21.4585922
11
377.2430293
21
23.7124173
0
LINE
8
BOTTOM_outsideCutPath
10
377.2430293
20
23.7124173
11
378.157457
21
26.0385912
0
LINE
8
BOTTOM_outsideCutPath
10
378.157457
20
26.0385912
11
378.9009829
21
28.4248921
0
LINE
8
BOTTOM_outsideCutPath
10
378.9009829
20
28.4248921
11
379.4697003
21
30.8587827
0
LINE
8
BOTTOM_outsideCutPath
10
379.4697003
20
30.8587827
11
379.8606214
21
33.3274754
0
LINE
8
BOTTOM_outsideCutPath
10
379.8606214
20
33.3274754
11
380.0716922
21
35.8179998
0
LINE
8
BOTTOM_outsideCutPath
10
380.0716922
20
35.8179998
11
380.1119025
21
37.482786
0
LINE
8
BOTTOM_outsideCutPath
10
380.1119025
20
37.482786
11
380.1119025
21
43.5146545
0
LINE
8
BOTTOM_outsideCutPath
10
380.1119025
20
43.5146545
11
383.1119025
21
43.5146545
0
LINE
8
BOTTOM_outsideCutPath
10
383.1119025
20
43.5146545
11
383.1119025
21
49.5146545
0
LINE
8
BOTTOM_outsideCutPath
10
383.1119025
20
49.5146545
11
380.1119025
21
49.5146545
0
LINE
8
BOTTOM_outsideCutPath
10
380.1119025
20
49.5146545
11
380.1119025
21
55.5146545
0
LINE
8
BOTTOM_outsideCutPath
10
380.1119025
20
55.5146545
11
383.1119025
21
55.5146545
0
LINE
8
BOTTOM_outsideCutPath
10
383.1119025
20
55.5146545
11
383.1119025
21
61.5146545
0
LINE
8
BOTTOM_outsideCutPath
10
383.1119025
20
61.5146545
11
380.1119025
21
61.5146545
0
LINE
8
BOTTOM_outsideCutPath
10
380.1119025
20
61.5146545
11
380.1119025
21
67.5146545
0
LINE
8
BOTTOM_outsideCutPath
10
380.1119025
20
67.5146545
11
383.1119025
21
67.5146545
0
LINE
8
BOTTOM_outsideCutPath
10
383.1119025
20
67.5146545
11
383.1119025
21
73.5146545
0
LINE
8
BOTTOM_outsideCutPath
10
383.1119025
20
73.5146545
11
380.1119025
21
73.5146545
0
LINE
8
BOTTOM_outsideCutPath
10
380.1119025
20
73.5146545
11
380.1119025
21
79.5146545
0
LINE
8
BOTTOM_outsideCutPath
10
380.1119025
20
79.5146545
11
383.1119025
21
79.5146545
0
LINE
8
BOTTOM_outsideCutPath
10
383.1119025
20
79.5146545
11
383.1119025
21
85.5146545
0
LINE
8
BOTTOM_outsideCutPath
10
383.1119025
20
85.5146545
11
380.1119025
21
85.5146545
0
LINE
8
BOTTOM_outsideCutPath
10
380.1119025
20
85.5146545
11
380.1119025
21
91.5146545
0
LINE
8
BOTTOM_outsideCutPath
10
380.1119025
20
91.5146545
11
383.1119025
21
91.5146545
0
LINE
8
BOTTOM_outsideCutPath
10
383.1119025
20
91.5146545
11
383.1119025
21
97.5146545
0
LINE
8
BOTTOM_outsideCutPath
10
383.1119025
20
97.5146545
11
380.1119025
21
97.5146545
0
LINE
8
BOTTOM_outsideCutPath
10
380.1119025
20
97.5146545
11
380.1119025
21
103.5146545
0
LINE
8
BOTTOM_outsideCutPath
10
380.1119025
20
103.5146545
11
383.1119025
21
103.5146545
0
LINE
8
BOTTOM_outsideCutPath
10
383.1119025
20
103.5146545
11
383.1119025
21
109.5146545
0
LINE
8
BOTTOM_outsideCutPath
10
383.1119025
20
109.5146545
11
380.1119025
21
109.5146545
0
LINE
8
BOTTOM_outsideCutPath
10
380.1119025
20
109.5146545
11
380.1119025
21
115.5465231
0
LINE
8
BOTTOM_outsideCutPath
10
380.1119025
20
115.5465231
11
380.0213173
21
118.0443335
0
LINE
8
BOTTOM_outsideCutPath
10
380.0213173
20
118.0443335
11
379.7500375
21
120.5290207
0
LINE
8
BOTTOM_outsideCutPath
10
379.7500375
20
120.5290207
11
379.2994885
21
122.9875301
0
LINE
8
BOTTOM_outsideCutPath
10
379.2994885
20
122.9875301
11
378.6720373
21
125.4069448
0
LINE
8
BOTTOM_outsideCutPath
10
378.6720373
20
125.4069448
11
377.8709806
21
127.7745536
0
LINE
8
BOTTOM_outsideCutPath
10
377.8709806
20
127.7745536
11
376.9005272
21
130.077917
0
LINE
8
BOTTOM_outsideCutPath
10
376.9005272
20
130.077917
11
375.7657756
21
132.3049333
0
LINE
8
BOTTOM_outsideCutPath
10
375.7657756
20
132.3049333
11
374.4726878
21
134.4439019
0
LINE
8
BOTTOM_outsideCutPath
10
374.4726878
20
134.4439019
11
373.0280576
21
136.4835849
0
LINE
8
BOTTOM_outsideCutPath
10
373.0280576
20
136.4835849
11
371.4394751
21
138.4132658
0
LINE
8
BOTTOM_outsideCutPath
10
371.4394751
20
138.4132658
11
369.7152865
21
140.2228062
0
LINE
8
BOTTOM_outsideCutPath
10
369.7152865
20
140.2228062
11
367.8645506
21
141.9026989
0
LINE
8
BOTTOM_outsideCutPath
10
367.8645506
20
141.9026989
11
365.8969911
21
143.4441178
0
LINE
8
BOTTOM_outsideCutPath
10
365.8969911
20
143.4441178
11
363.8229453
21
144.8389645
0
LINE
8
BOTTOM_outsideCutPath
10
363.8229453
20
144.8389645
11
361.6533103
21
146.0799104
0
LINE
8
BOTTOM_outsideCutPath
10
361.6533103
20
146.0799104
11
359.3994852
21
147.1604358
0
LINE
8
BOTTOM_outsideCutPath
10
359.3994852
20
147.1604358
11
357.0733114
21
148.0748636
0
LINE
8
BOTTOM_outsideCutPath
10
357.0733114
20
148.0748636
11
354.6870104
21
148.8183894
0
LINE
8
BOTTOM_outsideCutPath
10
354.6870104
20
148.8183894
11
352.2531199
21
149.3871069
0
LINE
8
BOTTOM_outsideCutPath
10
352.2531199
20
149.3871069
11
349.7844272
21
149.7780279
0
LINE
8
BOTTOM_outsideCutPath
10
349.7844272
20
149.7780279
11
347.2939027
21
149.9890987
0
LINE
8
BOTTOM_outsideCutPath
10
347.2939027
20
149.9890987
11
345.6291165
21
150.0293091
0
LINE
8
SIDE_insideCutPath
10
154.0731653
20
156.0293091
11
154.0731653
21
277.5293091
0
LINE
8
SIDE_insideCutPath
10
154.0731653
20
338.2793091
11
154.0731653
21
459.7793091
0
LINE
8
SIDE_insideCutPath
10
154.0731653
20
520.5293091
11
154.0731653
21
642.0293091
0
LINE
8
SIDE_insideCutPath
10
157.0828967
20
156.0293091
11
157.0828967
21
186.4043091
0
LINE
8
SIDE_insideCutPath
10
157.0828967
20
247.1543091
11
157.0828967
21
368.6543091
0
LINE
8
SIDE_insideCutPath
10
157.0828967
20
429.4043091
11
157.0828967
21
550.9043091
0
LINE
8
SIDE_insideCutPath
10
157.0828967
20
611.6543091
11
157.0828967
21
642.0293091
0
LINE
8
SIDE_insideCutPath
10
160.092628
20
156.0293091
11
160.092628
21
277.5293091
0
LINE
8
SIDE_insideCutPath
10
160.092628
20
338.2793091
11
160.092628
21
459.7793091
0
LINE
8
SIDE_insideCutPath
10
160.092628
20
520.5293091
11
160.092628
21
642.0293091
0
LINE
8
SIDE_insideCutPath
10
163.1023594
20
156.0293091
11
163.1023594
21
186.4043091
0
LINE
8
SIDE_insideCutPath
10
163.1023594
20
247.1543091
11
163.1023594
21
368.6543091
0
LINE
8
SIDE_insideCutPath
10
163.1023594
20
429.4043091
11
163.1023594
21
550.9043091
0
LINE
8
SIDE_insideCutPath
10
163.1023594
20
611.6543091
11
163.1023594
21
642.0293091
0
LINE
8
SIDE_insideCutPath
10
166.1120908
20
156.0293091
11
166.1120908
21
277.5293091
0
LINE
8
SIDE_insideCutPath
10
166.1120908
20
338.2793091
11
166.1120908
21
459.7793091
0
LINE
8
SIDE_insideCutPath
10
166.1120908
20
520.5293091
11
166.1120908
21
642.0293091
0
LINE
8
SIDE_insideCutPath
10
169.1218222
20
156.0293091
11
169.1218222
21
186.4043091
0
LINE
8
SIDE_insideCutPath
10
169.1218222
20
247.1543091
11
169.1218222
21
368.6543091
0
LINE
8
SIDE_insideCutPath
10
169.1218222
20
429.4043091
11
169.1218222
21
550.9043091
0
LINE
8
SIDE_insideCutPath
10
169.1218222
20
611.6543091
11
169.1218222
21
642.0293091
0
LINE
8
SIDE_insideCutPath
10
172.1315536
20
156.0293091
11
172.1315536
21
277.5293091
0
LINE
8
SIDE_insideCutPath
10
172.1315536
20
338.2793091
11
172.1315536
21
459.7793091
0
LINE
8
SIDE_insideCutPath
10
172.1315536
20
520.5293091
11
172.1315536
21
642.0293091
0
LINE
8
SIDE_insideCutPath
10
175.141285
20
156.0293091
11
175.141285
21
186.4043091
0
LINE
8
SIDE_insideCutPath
10
175.141285
20
247.1543091
11
175.141285
21
368.6543091
0
LINE
8
SIDE_insideCutPath
10
175.141285
20
429.4043091
11
175.141285
21
550.9043091
0
LINE
8
SIDE_insideCutPath
10
175.141285
20
611.6543091
11
175.141285
21
642.0293091
0
LINE
8
SIDE_insideCutPath
10
178.1510164
20
156.0293091
11
178.1510164
21
277.5293091
0
LINE
8
SIDE_insideCutPath
10
178.1510164
20
338.2793091
11
178.1510164
21
459.7793091
0
LINE
8
SIDE_insideCutPath
10
178.1510164
20
520.5293091
11
178.1510164
21
642.0293091
0
LINE
8
SIDE_insideCutPath
10
181.1607478
20
156.0293091
11
181.1607478
21
186.4043091
0
LINE
8
SIDE_insideCutPath
10
181.1607478
20
247.1543091
11
181.1607478
21
368.6543091
0
LINE
8
SIDE_insideCutPath
10
181.1607478
20
429.4043091
11
181.1607478
21
550.9043091
0
LINE
8
SIDE_insideCutPath
10
181.1607478
20
611.6543091
11
181.1607478
21
642.0293091
0
LINE
8
SIDE_insideCutPath
10
184.1704791
20
156.0293091
11
184.1704791
21
277.5293091
0
LINE
8
SIDE_insideCutPath
10
184.1704791
20
338.2793091
11
184.1704791
21
459.7793091
0
LINE
8
SIDE_insideCutPath
10
184.1704791
20
520.5293091
11
184.1704791
21
642.0293091
0
LINE
8
SIDE_insideCutPath
10
187.1802105
20
156.0293091
11
187.1802105
21
186.4043091
0
LINE
8
SIDE_insideCutPath
10
187.1802105
20
247.1543091
11
187.1802105
21
368.6543091
0
LINE
8
SIDE_insideCutPath
10
187.1802105
20
429.4043091
11
187.1802105
21
550.9043091
0
LINE
8
SIDE_insideCutPath
10
187.1802105
20
611.6543091
11
187.1802105
21
642.0293091
0
LINE
8
SIDE_insideCutPath
10
190.1899419
20
156.0293091
11
190.1899419
21
277.5293091
0
LINE
8
SIDE_insideCutPath
10
190.1899419
20
338.2793091
11
190.1899419
21
459.7793091
0
LINE
8
SIDE_insideCutPath
10
190.1899419
20
520.5293091
11
190.1899419
21
642.0293091
0
LINE
8
SIDE_insideCutPath
10
193.1996733
20
156.0293091
11
193.1996733
21
186.4043091
0
LINE
8
SIDE_insideCutPath
10
193.1996733
20
247.1543091
11
193.1996733
21
368.6543091
0
LINE
8
SIDE_insideCutPath
10
193.1996733
20
429.4043091
11
193.1996733
21
550.9043091
0
LINE
8
SIDE_insideCutPath
10
193.1996733
20
611.6543091
11
193.1996733
21
642.0293091
0
LINE
8
SIDE_insideCutPath
10
196.2094047
20
156.0293091
11
196.2094047
21
277.5293091
0
LINE
8
SIDE_insideCutPath
10
196.2094047
20
338.2793091
11
196.2094047
21
459.7793091
0
LINE
8
SIDE_insideCutPath
10
196.2094047
20
520.5293091
11
196.2094047
21
642.0293091
0
LINE
8
SIDE_insideCutPath
10
199.2191361
20
156.0293091
11
199.2191361
21
186.4043091
0
LINE
8
SIDE_insideCutPath
10
199.2191361
20
247.1543091
11
199.2191361
21
368.6543091
0
LINE
8
SIDE_insideCutPath
10
199.2191361
20
429.4043091
11
199.2191361
21
550.9043091
0
LINE
8
SIDE_insideCutPath
10
199.2191361
20
611.6543091
11
199.2191361
21
642.0293091
0
LINE
8
SIDE_insideCutPath
10
202.2288675
20
156.0293091
11
202.2288675
21
277.5293091
0
LINE
8
SIDE_insideCutPath
10
202.2288675
20
338.2793091
11
202.2288675
21
459.7793091
0
LINE
8
SIDE_insideCutPath
10
202.2288675
20
520.5293091
11
202.2288675
21
642.0293091
0
LINE
8
SIDE_insideCutPath
10
205.2385989
20
156.0293091
11
205.2385989
21
186.4043091
0
LINE
8
SIDE_insideCutPath
10
205.2385989
20
247.1543091
11
205.2385989
21
368.6543091
0
LINE
8
SIDE_insideCutPath
10
205.2385989
20
429.4043091
11
205.2385989
21
550.9043091
0
LINE
8
SIDE_insideCutPath
10
205.2385989
20
611.6543091
11
205.2385989
21
642.0293091
0
LINE
8
SIDE_insideCutPath
10
286.3023359
20
156.0293091
11
286.3023359
21
277.5293091
0
LINE
8
SIDE_insideCutPath
10
286.3023359
20
338.2793091
11
286.3023359
21
459.7793091
0
LINE
8
SIDE_insideCutPath
10
286.3023359
20
520.5293091
11
286.3023359
21
642.0293091
0
LINE
8
SIDE_insideCutPath
10
289.3120673
20
156.0293091
11
289.3120673
21
186.4043091
0
LINE
8
SIDE_insideCutPath
10
289.3120673
20
247.1543091
11
289.3120673
21
368.6543091
0
LINE
8
SIDE_insideCutPath
10
289.3120673
20
429.4043091
11
289.3120673
21
550.9043091
0
LINE
8
SIDE_insideCutPath
10
289.3120673
20
611.6543091
11
289.3120673
21
642.0293091
0
LINE
8
SIDE_insideCutPath
10
292.3217987
20
156.0293091
11
292.3217987
21
277.5293091
0
LINE
8
SIDE_insideCutPath
10
292.3217987
20
338.2793091
11
292.3217987
21
459.7793091
0
LINE
8
SIDE_insideCutPath
10
292.3217987
20
520.5293091
11
292.3217987
21
642.0293091
0
LINE
8
SIDE_insideCutPath
10
295.3315301
20
156.0293091
11
295.3315301
21
186.4043091
0
LINE
8
SIDE_insideCutPath
10
295.3315301
20
247.1543091
11
295.3315301
21
368.6543091
0
LINE
8
SIDE_insideCutPath
10
295.3315301
20
429.4043091
11
295.3315301
21
550.9043091
0
LINE
8
SIDE_insideCutPath
10
295.3315301
20
611.6543091
11
295.3315301
21
642.0293091
0
LINE
8
SIDE_insideCutPath
10
298.3412615
20
156.0293091
11
298.3412615
21
277.5293091
0
LINE
8
SIDE_insideCutPath
10
298.3412615
20
338.2793091
11
298.3412615
21
459.7793091
0
LINE
8
SIDE_insideCutPath
10
298.3412615
20
520.5293091
11
298.3412615
21
642.0293091
0
LINE
8
SIDE_insideCutPath
10
301.3509929
20
156.0293091
11
301.3509929
21
186.4043091
0
LINE
8
SIDE_insideCutPath
10
301.3509929
20
247.1543091
11
301.3509929
21
368.6543091
0
LINE
8
SIDE_insideCutPath
10
301.3509929
20
429.4043091
11
301.3509929
21
550.9043091
0
LINE
8
SIDE_insideCutPath
10
301.3509929
20
611.6543091
11
301.3509929
21
642.0293091
0
LINE
8
SIDE_insideCutPath
10
304.3607243
20
156.0293091
11
304.3607243
21
277.5293091
0
LINE
8
SIDE_insideCutPath
10
304.3607243
20
338.2793091
11
304.3607243
21
459.7793091
0
LINE
8
SIDE_insideCutPath
10
304.3607243
20
520.5293091
11
304.3607243
21
642.0293091
0
LINE
8
SIDE_insideCutPath
10
307.3704556
20
156.0293091
11
307.3704556
21
186.4043091
0
LINE
8
SIDE_insideCutPath
10
307.3704556
20
247.1543091
11
307.3704556
21
368.6543091
0
LINE
8
SIDE_insideCutPath
10
307.3704556
20
429.4043091
11
307.3704556
21
550.9043091
0
LINE
8
SIDE_insideCutPath
10
307.3704556
20
611.6543091
11
307.3704556
21
642.0293091
0
LINE
8
SIDE_insideCutPath
10
310.380187
20
156.0293091
11
310.380187
21
277.5293091
0
LINE
8
SIDE_insideCutPath
10
310.380187
20
338.2793091
11
310.380187
21
459.7793091
0
LINE
8
SIDE_insideCutPath
10
310.380187
20
520.5293091
11
310.380187
21
642.0293091
0
LINE
8
SIDE_insideCutPath
10
313.3899184
20
156.0293091
11
313.3899184
21
186.4043091
0
LINE
8
SIDE_insideCutPath
10
313.3899184
20
247.1543091
11
313.3899184
21
368.6543091
0
LINE
8
SIDE_insideCutPath
10
313.3899184
20
429.4043091
11
313.3899184
21
550.9043091
0
LINE
8
SIDE_insideCutPath
10
313.3899184
20
611.6543091
11
313.3899184
21
642.0293091
0
LINE
8
SIDE_insideCutPath
10
316.3996498
20
156.0293091
11
316.3996498
21
277.5293091
0
LINE
8
SIDE_insideCutPath
10
316.3996498
20
338.2793091
11
316.3996498
21
459.7793091
0
LINE
8
SIDE_insideCutPath
10
316.3996498
20
520.5293091
11
316.3996498
21
642.0293091
0
LINE
8
SIDE_insideCutPath
10
319.4093812
20
156.0293091
11
319.4093812
21
186.4043091
0
LINE
8
SIDE_insideCutPath
10
319.4093812
20
247.1543091
11
319.4093812
21
368.6543091
0
LINE
8
SIDE_insideCutPath
10
319.4093812
20
429.4043091
11
319.4093812
21
550.9043091
0
LINE
8
SIDE_insideCutPath
10
319.4093812
20
611.6543091
11
319.4093812
21
642.0293091
0
LINE
8
SIDE_insideCutPath
10
322.4191126
20
156.0293091
11
322.4191126
21
277.5293091
0
LINE
8
SIDE_insideCutPath
10
322.4191126
20
338.2793091
11
322.4191126
21
459.7793091
0
LINE
8
SIDE_insideCutPath
10
322.4191126
20
520.5293091
11
322.4191126
21
642.0293091
0
LINE
8
SIDE_insideCutPath
10
325.428844
20
156.0293091
11
325.428844
21
186.4043091
0
LINE
8
SIDE_insideCutPath
10
325.428844
20
247.1543091
11
325.428844
21
368.6543091
0
LINE
8
SIDE_insideCutPath
10
325.428844
20
429.4043091
11
325.428844
21
550.9043091
0
LINE
8
SIDE_insideCutPath
10
325.428844
20
611.6543091
11
325.428844
21
642.0293091
0
LINE
8
SIDE_insideCutPath
10
328.4385754
20
156.0293091
11
328.4385754
21
277.5293091
0
LINE
8
SIDE_insideCutPath
10
328.4385754
20
338.2793091
11
328.4385754
21
459.7793091
0
LINE
8
SIDE_insideCutPath
10
328.4385754
20
520.5293091
11
328.4385754
21
642.0293091
0
LINE
8
SIDE_insideCutPath
10
331.4483067
20
156.0293091
11
331.4483067
21
186.4043091
0
LINE
8
SIDE_insideCutPath
10
331.4483067
20
247.1543091
11
331.4483067
21
368.6543091
0
LINE
8
SIDE_insideCutPath
10
331.4483067
20
429.4043091
11
331.4483067
21
550.9043091
0
LINE
8
SIDE_insideCutPath
10
331.4483067
20
611.6543091
11
331.4483067
21
642.0293091
0
LINE
8
SIDE_insideCutPath
10
334.4580381
20
156.0293091
11
334.4580381
21
277.5293091
0
LINE
8
SIDE_insideCutPath
10
334.4580381
20
338.2793091
11
334.4580381
21
459.7793091
0
LINE
8
SIDE_insideCutPath
10
334.4580381
20
520.5293091
11
334.4580381
21
642.0293091
0
LINE
8
SIDE_insideCutPath
10
337.4677695
20
156.0293091
11
337.4677695
21
186.4043091
0
LINE
8
SIDE_insideCutPath
10
337.4677695
20
247.1543091
11
337.4677695
21
368.6543091
0
LINE
8
SIDE_insideCutPath
10
337.4677695
20
429.4043091
11
337.4677695
21
550.9043091
0
LINE
8
SIDE_insideCutPath
10
337.4677695
20
611.6543091
11
337.4677695
21
642.0293091
0
LINE
8
SIDE_insideCutPath
10
648.6141001
20
156.0293091
11
648.6141001
21
277.5293091
0
LINE
8
SIDE_insideCutPath
10
648.6141001
20
338.2793091
11
648.6141001
21
459.7793091
0
LINE
8
SIDE_insideCutPath
10
648.6141001
20
520.5293091
11
648.6141001
21
642.0293091
0
LINE
8
SIDE_insideCutPath
10
651.6238315
20
156.0293091
11
651.6238315
21
186.4043091
0
LINE
8
SIDE_insideCutPath
10
651.6238315
20
247.1543091
11
651.6238315
21
368.6543091
0
LINE
8
SIDE_insideCutPath
10
651.6238315
20
429.4043091
11
651.6238315
21
550.9043091
0
LINE
8
SIDE_insideCutPath
10
651.6238315
20
611.6543091
11
651.6238315
21
642.0293091
0
LINE
8
SIDE_insideCutPath
10
654.6335628
20
156.0293091
11
654.6335628
21
277.5293091
0
LINE
8
SIDE_insideCutPath
10
654.6335628
20
338.2793091
11
654.6335628
21
459.7793091
0
LINE
8
SIDE_insideCutPath
10
654.6335628
20
520.5293091
11
654.6335628
21
642.0293091
0
LINE
8
SIDE_insideCutPath
10
657.6432942
20
156.0293091
11
657.6432942
21
186.4043091
0
LINE
8
SIDE_insideCutPath
10
657.6432942
20
247.1543091
11
657.6432942
21
368.6543091
0
LINE
8
SIDE_insideCutPath
10
657.6432942
20
429.4043091
11
657.6432942
21
550.9043091
0
LINE
8
SIDE_insideCutPath
10
657.6432942
20
611.6543091
11
657.6432942
21
642.0293091
0
LINE
8
SIDE_insideCutPath
10
660.6530256
20
156.0293091
11
660.6530256
21
277.5293091
0
LINE
8
SIDE_insideCutPath
10
660.6530256
20
338.2793091
11
660.6530256
21
459.7793091
0
LINE
8
SIDE_insideCutPath
10
660.6530256
20
520.5293091
11
660.6530256
21
642.0293091
0
LINE
8
SIDE_insideCutPath
10
663.662757
20
156.0293091
11
663.662757
21
186.4043091
0
LINE
8
SIDE_insideCutPath
10
663.662757
20
247.1543091
11
663.662757
21
368.6543091
0
LINE
8
SIDE_insideCutPath
10
663.662757
20
429.4043091
11
663.662757
21
550.9043091
0
LINE
8
SIDE_insideCutPath
10
663.662757
20
611.6543091
11
663.662757
21
642.0293091
0
LINE
8
SIDE_insideCutPath
10
666.6724884
20
156.0293091
11
666.6724884
21
277.5293091
0
LINE
8
SIDE_insideCutPath
10
666.6724884
20
338.2793091
11
666.6724884
21
459.7793091
0
LINE
8
SIDE_insideCutPath
10
666.6724884
20
520.5293091
11
666.6724884
21
642.0293091
0
LINE
8
SIDE_insideCutPath
10
669.6822198
20
156.0293091
11
669.6822198
21
186.4043091
0
LINE
8
SIDE_insideCutPath
10
669.6822198
20
247.1543091
11
669.6822198
21
368.6543091
0
LINE
8
SIDE_insideCutPath
10
669.6822198
20
429.4043091
11
669.6822198
21
550.9043091
0
LINE
8
SIDE_insideCutPath
10
669.6822198
20
611.6543091
11
669.6822198
21
642.0293091
0
LINE
8
SIDE_insideCutPath
10
672.6919512
20
156.0293091
11
672.6919512
21
277.5293091
0
LINE
8
SIDE_insideCutPath
10
672.6919512
20
338.2793091
11
672.6919512
21
459.7793091
0
LINE
8
SIDE_insideCutPath
10
672.6919512
20
520.5293091
11
672.6919512
21
642.0293091
0
LINE
8
SIDE_insideCutPath
10
675.7016826
20
156.0293091
11
675.7016826
21
186.4043091
0
LINE
8
SIDE_insideCutPath
10
675.7016826
20
247.1543091
11
675.7016826
21
368.6543091
0
LINE
8
SIDE_insideCutPath
10
675.7016826
20
429.4043091
11
675.7016826
21
550.9043091
0
LINE
8
SIDE_insideCutPath
10
675.7016826
20
611.6543091
11
675.7016826
21
642.0293091
0
LINE
8
SIDE_insideCutPath
10
678.7114139
20
156.0293091
11
678.7114139
21
277.5293091
0
LINE
8
SIDE_insideCutPath
10
678.7114139
20
338.2793091
11
678.7114139
21
459.7793091
0
LINE
8
SIDE_insideCutPath
10
678.7114139
20
520.5293091
11
678.7114139
21
642.0293091
0
LINE
8
SIDE_insideCutPath
10
681.7211453
20
156.0293091
11
681.7211453
21
186.4043091
0
LINE
8
SIDE_insideCutPath
10
681.7211453
20
247.1543091
11
681.7211453
21
368.6543091
0
LINE
8
SIDE_insideCutPath
10
681.7211453
20
429.4043091
11
681.7211453
21
550.9043091
0
LINE
8
SIDE_insideCutPath
10
681.7211453
20
611.6543091
11
681.7211453
21
642.0293091
0
LINE
8
SIDE_insideCutPath
10
684.7308767
20
156.0293091
11
684.7308767
21
277.5293091
0
LINE
8
SIDE_insideCutPath
10
684.7308767
20
338.2793091
11
684.7308767
21
459.7793091
0
LINE
8
SIDE_insideCutPath
10
684.7308767
20
520.5293091
11
684.7308767
21
642.0293091
0
LINE
8
SIDE_insideCutPath
10
687.7406081
20
156.0293091
11
687.7406081
21
186.4043091
0
LINE
8
SIDE_insideCutPath
10
687.7406081
20
247.1543091
11
687.7406081
21
368.6543091
0
LINE
8
SIDE_insideCutPath
10
687.7406081
20
429.4043091
11
687.7406081
21
550.9043091
0
LINE
8
SIDE_insideCutPath
10
687.7406081
20
611.6543091
11
687.7406081
21
642.0293091
0
LINE
8
SIDE_insideCutPath
10
690.7503395
20
156.0293091
11
690.7503395
21
277.5293091
0
LINE
8
SIDE_insideCutPath
10
690.7503395
20
338.2793091
11
690.7503395
21
459.7793091
0
LINE
8
SIDE_insideCutPath
10
690.7503395
20
520.5293091
11
690.7503395
21
642.0293091
0
LINE
8
SIDE_insideCutPath
10
693.7600709
20
156.0293091
11
693.7600709
21
186.4043091
0
LINE
8
SIDE_insideCutPath
10
693.7600709
20
247.1543091
11
693.7600709
21
368.6543091
0
LINE
8
SIDE_insideCutPath
10
693.7600709
20
429.4043091
11
693.7600709
21
550.9043091
0
LINE
8
SIDE_insideCutPath
10
693.7600709
20
611.6543091
11
693.7600709
21
642.0293091
0
LINE
8
SIDE_insideCutPath
10
696.7698023
20
156.0293091
11
696.7698023
21
277.5293091
0
LINE
8
SIDE_insideCutPath
10
696.7698023
20
338.2793091
11
696.7698023
21
459.7793091
0
LINE
8
SIDE_insideCutPath
10
696.7698023
20
520.5293091
11
696.7698023
21
642.0293091
0
LINE
8
SIDE_insideCutPath
10
699.7795337
20
156.0293091
11
699.7795337
21
186.4043091
0
LINE
8
SIDE_insideCutPath
10
699.7795337
20
247.1543091
11
699.7795337
21
368.6543091
0
LINE
8
SIDE_insideCutPath
10
699.7795337
20
429.4043091
11
699.7795337
21
550.9043091
0
LINE
8
SIDE_insideCutPath
10
699.7795337
20
611.6543091
11
699.7795337
21
642.0293091
0
LINE
8
SIDE_insideCutPath
10
780.8432707
20
156.0293091
11
780.8432707
21
277.5293091
0
LINE
8
SIDE_insideCutPath
10
780.8432707
20
338.2793091
11
780.8432707
21
459.7793091
0
LINE
8
SIDE_insideCutPath
10
780.8432707
20
520.5293091
11
780.8432707
21
642.0293091
0
LINE
8
SIDE_insideCutPath
10
783.8530021
20
156.0293091
11
783.8530021
21
186.4043091
0
LINE
8
SIDE_insideCutPath
10
783.8530021
20
247.1543091
11
783.8530021
21
368.6543091
0
LINE
8
SIDE_insideCutPath
10
783.8530021
20
429.4043091
11
783.8530021
21
550.9043091
0
LINE
8
SIDE_insideCutPath
10
783.8530021
20
611.6543091
11
783.8530021
21
642.0293091
0
LINE
8
SIDE_insideCutPath
10
786.8627335
20
156.0293091
11
786.8627335
21
277.5293091
0
LINE
8
SIDE_insideCutPath
10
786.8627335
20
338.2793091
11
786.8627335
21
459.7793091
0
LINE
8
SIDE_insideCutPath
10
786.8627335
20
520.5293091
11
786.8627335
21
642.0293091
0
LINE
8
SIDE_insideCutPath
10
789.8724649
20
156.0293091
11
789.8724649
21
186.4043091
0
LINE
8
SIDE_insideCutPath
10
789.8724649
20
247.1543091
11
789.8724649
21
368.6543091
0
LINE
8
SIDE_insideCutPath
10
789.8724649
20
429.4043091
11
789.8724649
21
550.9043091
0
LINE
8
SIDE_insideCutPath
10
789.8724649
20
611.6543091
11
789.8724649
21
642.0293091
0
LINE
8
SIDE_insideCutPath
10
792.8821963
20
156.0293091
11
792.8821963
21
277.5293091
0
LINE
8
SIDE_insideCutPath
10
792.8821963
20
338.2793091
11
792.8821963
21
459.7793091
0
LINE
8
SIDE_insideCutPath
10
792.8821963
20
520.5293091
11
792.8821963
21
642.0293091
0
LINE
8
SIDE_insideCutPath
10
795.8919277
20
156.0293091
11
795.8919277
21
186.4043091
0
LINE
8
SIDE_insideCutPath
10
795.8919277
20
247.1543091
11
795.8919277
21
368.6543091
0
LINE
8
SIDE_insideCutPath
10
795.8919277
20
429.4043091
11
795.8919277
21
550.9043091
0
LINE
8
SIDE_insideCutPath
10
795.8919277
20
611.6543091
11
795.8919277
21
642.0293091
0
LINE
8
SIDE_insideCutPath
10
798.901659
20
156.0293091
11
798.901659
21
277.5293091
0
LINE
8
SIDE_insideCutPath
10
798.901659
20
338.2793091
11
798.901659
21
459.7793091
0
LINE
8
SIDE_insideCutPath
10
798.901659
20
520.5293091
11
798.901659
21
642.0293091
0
LINE
8
SIDE_insideCutPath
10
801.9113904
20
156.0293091
11
801.9113904
21
186.4043091
0
LINE
8
SIDE_insideCutPath
10
801.9113904
20
247.1543091
11
801.9113904
21
368.6543091
0
LINE
8
SIDE_insideCutPath
10
801.9113904
20
429.4043091
11
801.9113904
21
550.9043091
0
LINE
8
SIDE_insideCutPath
10
801.9113904
20
611.6543091
11
801.9113904
21
642.0293091
0
LINE
8
SIDE_insideCutPath
10
804.9211218
20
156.0293091
11
804.9211218
21
277.5293091
0
LINE
8
SIDE_insideCutPath
10
804.9211218
20
338.2793091
11
804.9211218
21
459.7793091
0
LINE
8
SIDE_insideCutPath
10
804.9211218
20
520.5293091
11
804.9211218
21
642.0293091
0
LINE
8
SIDE_insideCutPath
10
807.9308532
20
156.0293091
11
807.9308532
21
186.4043091
0
LINE
8
SIDE_insideCutPath
10
807.9308532
20
247.1543091
11
807.9308532
21
368.6543091
0
LINE
8
SIDE_insideCutPath
10
807.9308532
20
429.4043091
11
807.9308532
21
550.9043091
0
LINE
8
SIDE_insideCutPath
10
807.9308532
20
611.6543091
11
807.9308532
21
642.0293091
0
LINE
8
SIDE_insideCutPath
10
810.9405846
20
156.0293091
11
810.9405846
21
277.5293091
0
LINE
8
SIDE_insideCutPath
10
810.9405846
20
338.2793091
11
810.9405846
21
459.7793091
0
LINE
8
SIDE_insideCutPath
10
810.9405846
20
520.5293091
11
810.9405846
21
642.0293091
0
LINE
8
SIDE_insideCutPath
10
813.950316
20
156.0293091
11
813.950316
21
186.4043091
0
LINE
8
SIDE_insideCutPath
10
813.950316
20
247.1543091
11
813.950316
21
368.6543091
0
LINE
8
SIDE_insideCutPath
10
813.950316
20
429.4043091
11
813.950316
21
550.9043091
0
LINE
8
SIDE_insideCutPath
10
813.950316
20
611.6543091
11
813.950316
21
642.0293091
0
LINE
8
SIDE_insideCutPath
10
816.9600474
20
156.0293091
11
816.9600474
21
277.5293091
0
LINE
8
SIDE_insideCutPath
10
816.9600474
20
338.2793091
11
816.9600474
21
459.7793091
0
LINE
8
SIDE_insideCutPath
10
816.9600474
20
520.5293091
11
816.9600474
21
642.0293091
0
LINE
8
SIDE_insideCutPath
10
819.9697788
20
156.0293091
11
819.9697788
21
186.4043091
0
LINE
8
SIDE_insideCutPath
10
819.9697788
20
247.1543091
11
819.9697788
21
368.6543091
0
LINE
8
SIDE_insideCutPath
10
819.9697788
20
429.4043091
11
819.9697788
21
550.9043091
0
LINE
8
SIDE_insideCutPath
10
819.9697788
20
611.6543091
11
819.9697788
21
642.0293091
0
LINE
8
SIDE_insideCutPath
10
822.9795101
20
156.0293091
11
822.9795101
21
277.5293091
0
LINE
8
SIDE_insideCutPath
10
822.9795101
20
338.2793091
11
822.9795101
21
459.7793091
0
LINE
8
SIDE_insideCutPath
10
822.9795101
20
520.5293091
11
822.9795101
21
642.0293091
0
LINE
8
SIDE_insideCutPath
10
825.9892415
20
156.0293091
11
825.9892415
21
186.4043091
0
LINE
8
SIDE_insideCutPath
10
825.9892415
20
247.1543091
11
825.9892415
21
368.6543091
0
LINE
8
SIDE_insideCutPath
10
825.9892415
20
429.4043091
11
825.9892415
21
550.9043091
0
LINE
8
SIDE_insideCutPath
10
825.9892415
20
611.6543091
11
825.9892415
21
642.0293091
0
LINE
8
SIDE_insideCutPath
10
828.9989729
20
156.0293091
11
828.9989729
21
277.5293091
0
LINE
8
SIDE_insideCutPath
10
828.9989729
20
338.2793091
11
828.9989729
21
459.7793091
0
LINE
8
SIDE_insideCutPath
10
828.9989729
20
520.5293091
11
828.9989729
21
642.0293091
0
LINE
8
SIDE_insideCutPath
10
832.0087043
20
156.0293091
11
832.0087043
21
186.4043091
0
LINE
8
SIDE_insideCutPath
10
832.0087043
20
247.1543091
11
832.0087043
21
368.6543091
0
LINE
8
SIDE_insideCutPath
10
832.0087043
20
429.4043091
11
832.0087043
21
550.9043091
0
LINE
8
SIDE_insideCutPath
10
832.0087043
20
611.6543091
11
832.0087043
21
642.0293091
0
LINE
8
SIDE_outsideCutPath
10
0
20
642.0293091
11
0
21
156.0293091
0
LINE
8
SIDE_outsideCutPath
10
0
20
156.0293091
11
8.0365826
21
156.0293091
0
LINE
8
SIDE_outsideCutPath
10
8.0365826
20
156.0293091
11
8.0365826
21
159.0293091
0
LINE
8
SIDE_outsideCutPath
10
8.0365826
20
159.0293091
11
14.0365826
21
159.0293091
0
LINE
8
SIDE_outsideCutPath
10
14.0365826
20
159.0293091
11
14.0365826
21
156.0293091
0
LINE
8
SIDE_outsideCutPath
10
14.0365826
20
156.0293091
11
20.0365826
21
156.0293091
0
LINE
8
SIDE_outsideCutPath
10
20.0365826
20
156.0293091
11
20.0365826
21
159.0293091
0
LINE
8
SIDE_outsideCutPath
10
20.0365826
20
159.0293091
11
26.0365826
21
159.0293091
0
LINE
8
SIDE_outsideCutPath
10
26.0365826
20
159.0293091
11
26.0365826
21
156.0293091
0
LINE
8
SIDE_outsideCutPath
10
26.0365826
20
156.0293091
11
32.0365826
21
156.0293091
0
LINE
8
SIDE_outsideCutPath
10
32.0365826
20
156.0293091
11
32.0365826
21
159.0293091
0
LINE
8
SIDE_outsideCutPath
10
32.0365826
20
159.0293091
11
38.0365826
21
159.0293091
0
LINE
8
SIDE_outsideCutPath
10
38.0365826
20
159.0293091
11
38.0365826
21
156.0293091
0
LINE
8
SIDE_outsideCutPath
10
38.0365826
20
156.0293091
11
44.0365826
21
156.0293091
0
LINE
8
SIDE_outsideCutPath
10
44.0365826
20
156.0293091
11
44.0365826
21
159.0293091
0
LINE
8
SIDE_outsideCutPath
10
44.0365826
20
159.0293091
11
50.0365826
21
159.0293091
0
LINE
8
SIDE_outsideCutPath
10
50.0365826
20
159.0293091
11
50.0365826
21
156.0293091
0
LINE
8
SIDE_outsideCutPath
10
50.0365826
20
156.0293091
11
56.0365826
21
156.0293091
0
LINE
8
SIDE_outsideCutPath
10
56.0365826
20
156.0293091
11
56.0365826
21
159.0293091
0
LINE
8
SIDE_outsideCutPath
10
56.0365826
20
159.0293091
11
62.0365826
21
159.0293091
0
LINE
8
SIDE_outsideCutPath
10
62.0365826
20
159.0293091
11
62.0365826
21
156.0293091
0
LINE
8
SIDE_outsideCutPath
10
62.0365826
20
156.0293091
11
68.0365826
21
156.0293091
0
LINE
8
SIDE_outsideCutPath
10
68.0365826
20
156.0293091
11
68.0365826
21
159.0293091
0
LINE
8
SIDE_outsideCutPath
10
68.0365826
20
159.0293091
11
74.0365826
21
159.0293091
0
LINE
8
SIDE_outsideCutPath
10
74.0365826
20
159.0293091
11
74.0365826
21
156.0293091
0
LINE
8
SIDE_outsideCutPath
10
74.0365826
20
156.0293091
11
80.0365826
21
156.0293091
0
LINE
8
SIDE_outsideCutPath
10
80.0365826
20
156.0293091
11
80.0365826
21
159.0293091
0
LINE
8
SIDE_outsideCutPath
10
80.0365826
20
159.0293091
11
86.0365826
21
159.0293091
0
LINE
8
SIDE_outsideCutPath
10
86.0365826
20
159.0293091
11
86.0365826
21
156.0293091
0
LINE
8
SIDE_outsideCutPath
10
86.0365826
20
156.0293091
11
92.0365826
21
156.0293091
0
LINE
8
SIDE_outsideCutPath
10
92.0365826
20
156.0293091
11
92.0365826
21
159.0293091
0
LINE
8
SIDE_outsideCutPath
10
92.0365826
20
159.0293091
11
98.0365826
21
159.0293091
0
LINE
8
SIDE_outsideCutPath
10
98.0365826
20
159.0293091
11
98.0365826
21
156.0293091
0
LINE
8
SIDE_outsideCutPath
10
98.0365826
20
156.0293091
11
104.0365826
21
156.0293091
0
LINE
8
SIDE_outsideCutPath
10
104.0365826
20
156.0293091
11
104.0365826
21
159.0293091
0
LINE
8
SIDE_outsideCutPath
10
104.0365826
20
159.0293091
11
110.0365826
21
159.0293091
0
LINE
8
SIDE_outsideCutPath
10
110.0365826
20
159.0293091
11
110.0365826
21
156.0293091
0
LINE
8
SIDE_outsideCutPath
10
110.0365826
20
156.0293091
11
116.0365826
21
156.0293091
0
LINE
8
SIDE_outsideCutPath
10
116.0365826
20
156.0293091
11
116.0365826
21
159.0293091
0
LINE
8
SIDE_outsideCutPath
10
116.0365826
20
159.0293091
11
122.0365826
21
159.0293091
0
LINE
8
SIDE_outsideCutPath
10
122.0365826
20
159.0293091
11
122.0365826
21
156.0293091
0
LINE
8
SIDE_outsideCutPath
10
122.0365826
20
156.0293091
11
128.0365826
21
156.0293091
0
LINE
8
SIDE_outsideCutPath
10
128.0365826
20
156.0293091
11
128.0365826
21
159.0293091
0
LINE
8
SIDE_outsideCutPath
10
128.0365826
20
159.0293091
11
134.0365826
21
159.0293091
0
LINE
8
SIDE_outsideCutPath
10
134.0365826
20
159.0293091
11
134.0365826
21
156.0293091
0
LINE
8
SIDE_outsideCutPath
10
134.0365826
20
156.0293091
11
140.0365826
21
156.0293091
0
LINE
8
SIDE_outsideCutPath
10
140.0365826
20
156.0293091
11
140.0365826
21
159.0293091
0
LINE
8
SIDE_outsideCutPath
10
140.0365826
20
159.0293091
11
146.0365826
21
159.0293091
0
LINE
8
SIDE_outsideCutPath
10
146.0365826
20
159.0293091
11
146.0365826
21
156.0293091
0
LINE
8
SIDE_outsideCutPath
10
146.0365826
20
156.0293091
11
154.0731653
21
156.0293091
0
LINE
8
SIDE_outsideCutPath
10
154.0731653
20
156.0293091
11
208.2385989
21
156.0293091
0
LINE
8
SIDE_outsideCutPath
10
208.2385989
20
156.0293091
11
214.2704674
21
156.0293091
0
LINE
8
SIDE_outsideCutPath
10
214.2704674
20
156.0293091
11
214.2704674
21
159.0293091
0
LINE
8
SIDE_outsideCutPath
10
214.2704674
20
159.0293091
11
220.2704674
21
159.0293091
0
LINE
8
SIDE_outsideCutPath
10
220.2704674
20
159.0293091
11
220.2704674
21
156.0293091
0
LINE
8
SIDE_outsideCutPath
10
220.2704674
20
156.0293091
11
226.2704674
21
156.0293091
0
LINE
8
SIDE_outsideCutPath
10
226.2704674
20
156.0293091
11
226.2704674
21
159.0293091
0
LINE
8
SIDE_outsideCutPath
10
226.2704674
20
159.0293091
11
232.2704674
21
159.0293091
0
LINE
8
SIDE_outsideCutPath
10
232.2704674
20
159.0293091
11
232.2704674
21
156.0293091
0
LINE
8
SIDE_outsideCutPath
10
232.2704674
20
156.0293091
11
238.2704674
21
156.0293091
0
LINE
8
SIDE_outsideCutPath
10
238.2704674
20
156.0293091
11
238.2704674
21
159.0293091
0
LINE
8
SIDE_outsideCutPath
10
238.2704674
20
159.0293091
11
244.2704674
21
159.0293091
0
LINE
8
SIDE_outsideCutPath
10
244.2704674
20
159.0293091
11
244.2704674
21
156.0293091
0
LINE
8
SIDE_outsideCutPath
10
244.2704674
20
156.0293091
11
250.2704674
21
156.0293091
0
LINE
8
SIDE_outsideCutPath
10
250.2704674
20
156.0293091
11
250.2704674
21
159.0293091
0
LINE
8
SIDE_outsideCutPath
10
250.2704674
20
159.0293091
11
256.2704674
21
159.0293091
0
LINE
8
SIDE_outsideCutPath
10
256.2704674
20
159.0293091
11
256.2704674
21
156.0293091
0
LINE
8
SIDE_outsideCutPath
10
256.2704674
20
156.0293091
11
262.2704674
21
156.0293091
0
LINE
8
SIDE_outsideCutPath
10
262.2704674
20
156.0293091
11
262.2704674
21
159.0293091
0
LINE
8
SIDE_outsideCutPath
10
262.2704674
20
159.0293091
11
268.2704674
21
159.0293091
0
LINE
8
SIDE_outsideCutPath
10
268.2704674
20
159.0293091
11
268.2704674
21
156.0293091
0
LINE
8
SIDE_outsideCutPath
10
268.2704674
20
156.0293091
11
274.2704674
21
156.0293091
0
LINE
8
SIDE_outsideCutPath
10
274.2704674
20
156.0293091
11
274.2704674
21
159.0293091
0
LINE
8
SIDE_outsideCutPath
10
274.2704674
20
159.0293091
11
280.2704674
21
159.0293091
0
LINE
8
SIDE_outsideCutPath
10
280.2704674
20
159.0293091
11
280.2704674
21
156.0293091
0
LINE
8
SIDE_outsideCutPath
10
280.2704674
20
156.0293091
11
286.3023359
21
156.0293091
0
LINE
8
SIDE_outsideCutPath
10
286.3023359
20
156.0293091
11
340.4677695
21
156.0293091
0
LINE
8
SIDE_outsideCutPath
10
340.4677695
20
156.0293091
11
353.5409348
21
156.0293091
0
LINE
8
SIDE_outsideCutPath
10
353.5409348
20
156.0293091
11
353.5409348
21
159.0293091
0
LINE
8
SIDE_outsideCutPath
10
353.5409348
20
159.0293091
11
359.5409348
21
159.0293091
0
LINE
8
SIDE_outsideCutPath
10
359.5409348
20
159.0293091
11
359.5409348
21
156.0293091
0
LINE
8
SIDE_outsideCutPath
10
359.5409348
20
156.0293091
11
365.5409348
21
156.0293091
0
LINE
8
SIDE_outsideCutPath
10
365.5409348
20
156.0293091
11
365.5409348
21
159.0293091
0
LINE
8
SIDE_outsideCutPath
10
365.5409348
20
159.0293091
11
371.5409348
21
159.0293091
0
LINE
8
SIDE_outsideCutPath
10
371.5409348
20
159.0293091
11
371.5409348
21
156.0293091
0
LINE
8
SIDE_outsideCutPath
10
371.5409348
20
156.0293091
11
377.5409348
21
156.0293091
0
LINE
8
SIDE_outsideCutPath
10
377.5409348
20
156.0293091
11
377.5409348
21
159.0293091
0
LINE
8
SIDE_outsideCutPath
10
377.5409348
20
159.0293091
11
383.5409348
21
159.0293091
0
LINE
8
SIDE_outsideCutPath
10
383.5409348
20
159.0293091
11
383.5409348
21
156.0293091
0
LINE
8
SIDE_outsideCutPath
10
383.5409348
20
156.0293091
11
389.5409348
21
156.0293091
0
LINE
8
SIDE_outsideCutPath
10
389.5409348
20
156.0293091
11
389.5409348
21
159.0293091
0
LINE
8
SIDE_outsideCutPath
10
389.5409348
20
159.0293091
11
395.5409348
21
159.0293091
0
LINE
8
SIDE_outsideCutPath
10
395.5409348
20
159.0293091
11
395.5409348
21
156.0293091
0
LINE
8
SIDE_outsideCutPath
10
395.5409348
20
156.0293091
11
401.5409348
21
156.0293091
0
LINE
8
SIDE_outsideCutPath
10
401.5409348
20
156.0293091
11
401.5409348
21
159.0293091
0
LINE
8
SIDE_outsideCutPath
10
401.5409348
20
159.0293091
11
407.5409348
21
159.0293091
0
LINE
8
SIDE_outsideCutPath
10
407.5409348
20
159.0293091
11
407.5409348
21
156.0293091
0
LINE
8
SIDE_outsideCutPath
10
407.5409348
20
156.0293091
11
413.5409348
21
156.0293091
0
LINE
8
SIDE_outsideCutPath
10
413.5409348
20
156.0293091
11
413.5409348
21
159.0293091
0
LINE
8
SIDE_outsideCutPath
10
413.5409348
20
159.0293091
11
419.5409348
21
159.0293091
0
LINE
8
SIDE_outsideCutPath
10
419.5409348
20
159.0293091
11
419.5409348
21
156.0293091
0
LINE
8
SIDE_outsideCutPath
10
419.5409348
20
156.0293091
11
425.5409348
21
156.0293091
0
LINE
8
SIDE_outsideCutPath
10
425.5409348
20
156.0293091
11
425.5409348
21
159.0293091
0
LINE
8
SIDE_outsideCutPath
10
425.5409348
20
159.0293091
11
431.5409348
21
159.0293091
0
LINE
8
SIDE_outsideCutPath
10
431.5409348
20
159.0293091
11
431.5409348
21
156.0293091
0
LINE
8
SIDE_outsideCutPath
10
431.5409348
20
156.0293091
11
437.5409348
21
156.0293091
0
LINE
8
SIDE_outsideCutPath
10
437.5409348
20
156.0293091
11
437.5409348
21
159.0293091
0
LINE
8
SIDE_outsideCutPath
10
437.5409348
20
159.0293091
11
443.5409348
21
159.0293091
0
LINE
8
SIDE_outsideCutPath
10
443.5409348
20
159.0293091
11
443.5409348
21
156.0293091
0
LINE
8
SIDE_outsideCutPath
10
443.5409348
20
156.0293091
11
449.5409348
21
156.0293091
0
LINE
8
SIDE_outsideCutPath
10
449.5409348
20
156.0293091
11
449.5409348
21
159.0293091
0
LINE
8
SIDE_outsideCutPath
10
449.5409348
20
159.0293091
11
455.5409348
21
159.0293091
0
LINE
8
SIDE_outsideCutPath
10
455.5409348
20
159.0293091
11
455.5409348
21
156.0293091
0
LINE
8
SIDE_outsideCutPath
10
455.5409348
20
156.0293091
11
461.5409348
21
156.0293091
0
LINE
8
SIDE_outsideCutPath
10
461.5409348
20
156.0293091
11
461.5409348
21
159.0293091
0
LINE
8
SIDE_outsideCutPath
10
461.5409348
20
159.0293091
11
467.5409348
21
159.0293091
0
LINE
8
SIDE_outsideCutPath
10
467.5409348
20
159.0293091
11
467.5409348
21
156.0293091
0
LINE
8
SIDE_outsideCutPath
10
467.5409348
20
156.0293091
11
473.5409348
21
156.0293091
0
LINE
8
SIDE_outsideCutPath
10
473.5409348
20
156.0293091
11
473.5409348
21
159.0293091
0
LINE
8
SIDE_outsideCutPath
10
473.5409348
20
159.0293091
11
479.5409348
21
159.0293091
0
LINE
8
SIDE_outsideCutPath
10
479.5409348
20
159.0293091
11
479.5409348
21
156.0293091
0
LINE
8
SIDE_outsideCutPath
10
479.5409348
20
156.0293091
11
485.5409348
21
156.0293091
0
LINE
8
SIDE_outsideCutPath
10
485.5409348
20
156.0293091
11
485.5409348
21
159.0293091
0
LINE
8
SIDE_outsideCutPath
10
485.5409348
20
159.0293091
11
491.5409348
21
159.0293091
0
LINE
8
SIDE_outsideCutPath
10
491.5409348
20
159.0293091
11
491.5409348
21
156.0293091
0
LINE
8
SIDE_outsideCutPath
10
491.5409348
20
156.0293091
11
497.5409348
21
156.0293091
0
LINE
8
SIDE_outsideCutPath
10
497.5409348
20
156.0293091
11
497.5409348
21
159.0293091
0
LINE
8
SIDE_outsideCutPath
10
497.5409348
20
159.0293091
11
503.5409348
21
159.0293091
0
LINE
8
SIDE_outsideCutPath
10
503.5409348
20
159.0293091
11
503.5409348
21
156.0293091
0
LINE
8
SIDE_outsideCutPath
10
503.5409348
20
156.0293091
11
509.5409348
21
156.0293091
0
LINE
8
SIDE_outsideCutPath
10
509.5409348
20
156.0293091
11
509.5409348
21
159.0293091
0
LINE
8
SIDE_outsideCutPath
10
509.5409348
20
159.0293091
11
515.5409348
21
159.0293091
0
LINE
8
SIDE_outsideCutPath
10
515.5409348
20
159.0293091
11
515.5409348
21
156.0293091
0
LINE
8
SIDE_outsideCutPath
10
515.5409348
20
156.0293091
11
521.5409348
21
156.0293091
0
LINE
8
SIDE_outsideCutPath
10
521.5409348
20
156.0293091
11
521.5409348
21
159.0293091
0
LINE
8
SIDE_outsideCutPath
10
521.5409348
20
159.0293091
11
527.5409348
21
159.0293091
0
LINE
8
SIDE_outsideCutPath
10
527.5409348
20
159.0293091
11
527.5409348
21
156.0293091
0
LINE
8
SIDE_outsideCutPath
10
527.5409348
20
156.0293091
11
533.5409348
21
156.0293091
0
LINE
8
SIDE_outsideCutPath
10
533.5409348
20
156.0293091
11
533.5409348
21
159.0293091
0
LINE
8
SIDE_outsideCutPath
10
533.5409348
20
159.0293091
11
539.5409348
21
159.0293091
0
LINE
8
SIDE_outsideCutPath
10
539.5409348
20
159.0293091
11
539.5409348
21
156.0293091
0
LINE
8
SIDE_outsideCutPath
10
539.5409348
20
156.0293091
11
545.5409348
21
156.0293091
0
LINE
8
SIDE_outsideCutPath
10
545.5409348
20
156.0293091
11
545.5409348
21
159.0293091
0
LINE
8
SIDE_outsideCutPath
10
545.5409348
20
159.0293091
11
551.5409348
21
159.0293091
0
LINE
8
SIDE_outsideCutPath
10
551.5409348
20
159.0293091
11
551.5409348
21
156.0293091
0
LINE
8
SIDE_outsideCutPath
10
551.5409348
20
156.0293091
11
557.5409348
21
156.0293091
0
LINE
8
SIDE_outsideCutPath
10
557.5409348
20
156.0293091
11
557.5409348
21
159.0293091
0
LINE
8
SIDE_outsideCutPath
10
557.5409348
20
159.0293091
11
563.5409348
21
159.0293091
0
LINE
8
SIDE_outsideCutPath
10
563.5409348
20
159.0293091
11
563.5409348
21
156.0293091
0
LINE
8
SIDE_outsideCutPath
10
563.5409348
20
156.0293091
11
569.5409348
21
156.0293091
0
LINE
8
SIDE_outsideCutPath
10
569.5409348
20
156.0293091
11
569.5409348
21
159.0293091
0
LINE
8
SIDE_outsideCutPath
10
569.5409348
20
159.0293091
11
575.5409348
21
159.0293091
0
LINE
8
SIDE_outsideCutPath
10
575.5409348
20
159.0293091
11
575.5409348
21
156.0293091
0
LINE
8
SIDE_outsideCutPath
10
575.5409348
20
156.0293091
11
581.5409348
21
156.0293091
0
LINE
8
SIDE_outsideCutPath
10
581.5409348
20
156.0293091
11
581.5409348
21
159.0293091
0
LINE
8
SIDE_outsideCutPath
10
581.5409348
20
159.0293091
11
587.5409348
21
159.0293091
0
LINE
8
SIDE_outsideCutPath
10
587.5409348
20
159.0293091
11
587.5409348
21
156.0293091
0
LINE
8
SIDE_outsideCutPath
10
587.5409348
20
156.0293091
11
593.5409348
21
156.0293091
0
LINE
8
SIDE_outsideCutPath
10
593.5409348
20
156.0293091
11
593.5409348
21
159.0293091
0
LINE
8
SIDE_outsideCutPath
10
593.5409348
20
159.0293091
11
599.5409348
21
159.0293091
0
LINE
8
SIDE_outsideCutPath
10
599.5409348
20
159.0293091
11
599.5409348
21
156.0293091
0
LINE
8
SIDE_outsideCutPath
10
599.5409348
20
156.0293091
11
605.5409348
21
156.0293091
0
LINE
8
SIDE_outsideCutPath
10
605.5409348
20
156.0293091
11
605.5409348
21
159.0293091
0
LINE
8
SIDE_outsideCutPath
10
605.5409348
20
159.0293091
11
611.5409348
21
159.0293091
0
LINE
8
SIDE_outsideCutPath
10
611.5409348
20
159.0293091
11
611.5409348
21
156.0293091
0
LINE
8
SIDE_outsideCutPath
10
611.5409348
20
156.0293091
11
617.5409348
21
156.0293091
0
LINE
8
SIDE_outsideCutPath
10
617.5409348
20
156.0293091
11
617.5409348
21
159.0293091
0
LINE
8
SIDE_outsideCutPath
10
617.5409348
20
159.0293091
11
623.5409348
21
159.0293091
0
LINE
8
SIDE_outsideCutPath
10
623.5409348
20
159.0293091
11
623.5409348
21
156.0293091
0
LINE
8
SIDE_outsideCutPath
10
623.5409348
20
156.0293091
11
629.5409348
21
156.0293091
0
LINE
8
SIDE_outsideCutPath
10
629.5409348
20
156.0293091
11
629.5409348
21
159.0293091
0
LINE
8
SIDE_outsideCutPath
10
629.5409348
20
159.0293091
11
635.5409348
21
159.0293091
0
LINE
8
SIDE_outsideCutPath
10
635.5409348
20
159.0293091
11
635.5409348
21
156.0293091
0
LINE
8
SIDE_outsideCutPath
10
635.5409348
20
156.0293091
11
648.6141001
21
156.0293091
0
LINE
8
SIDE_outsideCutPath
10
648.6141001
20
156.0293091
11
702.7795337
21
156.0293091
0
LINE
8
SIDE_outsideCutPath
10
702.7795337
20
156.0293091
11
708.8114022
21
156.0293091
0
LINE
8
SIDE_outsideCutPath
10
708.8114022
20
156.0293091
11
708.8114022
21
159.0293091
0
LINE
8
SIDE_outsideCutPath
10
708.8114022
20
159.0293091
11
714.8114022
21
159.0293091
0
LINE
8
SIDE_outsideCutPath
10
714.8114022
20
159.0293091
11
714.8114022
21
156.0293091
0
LINE
8
SIDE_outsideCutPath
10
714.8114022
20
156.0293091
11
720.8114022
21
156.0293091
0
LINE
8
SIDE_outsideCutPath
10
720.8114022
20
156.0293091
11
720.8114022
21
159.0293091
0
LINE
8
SIDE_outsideCutPath
10
720.8114022
20
159.0293091
11
726.8114022
21
159.0293091
0
LINE
8
SIDE_outsideCutPath
10
726.8114022
20
159.0293091
11
726.8114022
21
156.0293091
0
LINE
8
SIDE_outsideCutPath
10
726.8114022
20
156.0293091
11
732.8114022
21
156.0293091
0
LINE
8
SIDE_outsideCutPath
10
732.8114022
20
156.0293091
11
732.8114022
21
159.0293091
0
LINE
8
SIDE_outsideCutPath
10
732.8114022
20
159.0293091
11
738.8114022
21
159.0293091
0
LINE
8
SIDE_outsideCutPath
10
738.8114022
20
159.0293091
11
738.8114022
21
156.0293091
0
LINE
8
SIDE_outsideCutPath
10
738.8114022
20
156.0293091
11
744.8114022
21
156.0293091
0
LINE
8
SIDE_outsideCutPath
10
744.8114022
20
156.0293091
11
744.8114022
21
159.0293091
0
LINE
8
SIDE_outsideCutPath
10
744.8114022
20
159.0293091
11
750.8114022
21
159.0293091
0
LINE
8
SIDE_outsideCutPath
10
750.8114022
20
159.0293091
11
750.8114022
21
156.0293091
0
LINE
8
SIDE_outsideCutPath
10
750.8114022
20
156.0293091
11
756.8114022
21
156.0293091
0
LINE
8
SIDE_outsideCutPath
10
756.8114022
20
156.0293091
11
756.8114022
21
159.0293091
0
LINE
8
SIDE_outsideCutPath
10
756.8114022
20
159.0293091
11
762.8114022
21
159.0293091
0
LINE
8
SIDE_outsideCutPath
10
762.8114022
20
159.0293091
11
762.8114022
21
156.0293091
0
LINE
8
SIDE_outsideCutPath
10
762.8114022
20
156.0293091
11
768.8114022
21
156.0293091
0
LINE
8
SIDE_outsideCutPath
10
768.8114022
20
156.0293091
11
768.8114022
21
159.0293091
0
LINE
8
SIDE_outsideCutPath
10
768.8114022
20
159.0293091
11
774.8114022
21
159.0293091
0
LINE
8
SIDE_outsideCutPath
10
774.8114022
20
159.0293091
11
774.8114022
21
156.0293091
0
LINE
8
SIDE_outsideCutPath
10
774.8114022
20
156.0293091
11
780.8432707
21
156.0293091
0
LINE
8
SIDE_outsideCutPath
10
780.8432707
20
156.0293091
11
835.0087043
21
156.0293091
0
LINE
8
SIDE_outsideCutPath
10
835.0087043
20
156.0293091
11
843.0452869
21
156.0293091
0
LINE
8
SIDE_outsideCutPath
10
843.0452869
20
156.0293091
11
843.0452869
21
159.0293091
0
LINE
8
SIDE_outsideCutPath
10
843.0452869
20
159.0293091
11
849.0452869
21
159.0293091
0
LINE
8
SIDE_outsideCutPath
10
849.0452869
20
159.0293091
11
849.0452869
21
156.0293091
0
LINE
8
SIDE_outsideCutPath
10
849.0452869
20
156.0293091
11
855.0452869
21
156.0293091
0
LINE
8
SIDE_outsideCutPath
10
855.0452869
20
156.0293091
11
855.0452869
21
159.0293091
0
LINE
8
SIDE_outsideCutPath
10
855.0452869
20
159.0293091
11
861.0452869
21
159.0293091
0
LINE
8
SIDE_outsideCutPath
10
861.0452869
20
159.0293091
11
861.0452869
21
156.0293091
0
LINE
8
SIDE_outsideCutPath
10
861.0452869
20
156.0293091
11
867.0452869
21
156.0293091
0
LINE
8
SIDE_outsideCutPath
10
867.0452869
20
156.0293091
11
867.0452869
21
159.0293091
0
LINE
8
SIDE_outsideCutPath
10
867.0452869
20
159.0293091
11
873.0452869
21
159.0293091
0
LINE
8
SIDE_outsideCutPath
10
873.0452869
20
159.0293091
11
873.0452869
21
156.0293091
0
LINE
8
SIDE_outsideCutPath
10
873.0452869
20
156.0293091
11
879.0452869
21
156.0293091
0
LINE
8
SIDE_outsideCutPath
10
879.0452869
20
156.0293091
11
879.0452869
21
159.0293091
0
LINE
8
SIDE_outsideCutPath
10
879.0452869
20
159.0293091
11
885.0452869
21
159.0293091
0
LINE
8
SIDE_outsideCutPath
10
885.0452869
20
159.0293091
11
885.0452869
21
156.0293091
0
LINE
8
SIDE_outsideCutPath
10
885.0452869
20
156.0293091
11
891.0452869
21
156.0293091
0
LINE
8
SIDE_outsideCutPath
10
891.0452869
20
156.0293091
11
891.0452869
21
159.0293091
0
LINE
8
SIDE_outsideCutPath
10
891.0452869
20
159.0293091
11
897.0452869
21
159.0293091
0
LINE
8
SIDE_outsideCutPath
10
897.0452869
20
159.0293091
11
897.0452869
21
156.0293091
0
LINE
8
SIDE_outsideCutPath
10
897.0452869
20
156.0293091
11
903.0452869
21
156.0293091
0
LINE
8
SIDE_outsideCutPath
10
903.0452869
20
156.0293091
11
903.0452869
21
159.0293091
0
LINE
8
SIDE_outsideCutPath
10
903.0452869
20
159.0293091
11
909.0452869
21
159.0293091
0
LINE
8
SIDE_outsideCutPath
10
909.0452869
20
159.0293091
11
909.0452869
21
156.0293091
0
LINE
8
SIDE_outsideCutPath
10
909.0452869
20
156.0293091
11
915.0452869
21
156.0293091
0
LINE
8
SIDE_outsideCutPath
10
915.0452869
20
156.0293091
11
915.0452869
21
159.0293091
0
LINE
8
SIDE_outsideCutPath
10
915.0452869
20
159.0293091
11
921.0452869
21
159.0293091
0
LINE
8
SIDE_outsideCutPath
10
921.0452869
20
159.0293091
11
921.0452869
21
156.0293091
0
LINE
8
SIDE_outsideCutPath
10
921.0452869
20
156.0293091
11
927.0452869
21
156.0293091
0
LINE
8
SIDE_outsideCutPath
10
927.0452869
20
156.0293091
11
927.0452869
21
159.0293091
0
LINE
8
SIDE_outsideCutPath
10
927.0452869
20
159.0293091
11
933.0452869
21
159.0293091
0
LINE
8
SIDE_outsideCutPath
10
933.0452869
20
159.0293091
11
933.0452869
21
156.0293091
0
LINE
8
SIDE_outsideCutPath
10
933.0452869
20
156.0293091
11
939.0452869
21
156.0293091
0
LINE
8
SIDE_outsideCutPath
10
939.0452869
20
156.0293091
11
939.0452869
21
159.0293091
0
LINE
8
SIDE_outsideCutPath
10
939.0452869
20
159.0293091
11
945.0452869
21
159.0293091
0
LINE
8
SIDE_outsideCutPath
10
945.0452869
20
159.0293091
11
945.0452869
21
156.0293091
0
LINE
8
SIDE_outsideCutPath
10
945.0452869
20
156.0293091
11
951.0452869
21
156.0293091
0
LINE
8
SIDE_outsideCutPath
10
951.0452869
20
156.0293091
11
951.0452869
21
159.0293091
0
LINE
8
SIDE_outsideCutPath
10
951.0452869
20
159.0293091
11
957.0452869
21
159.0293091
0
LINE
8
SIDE_outsideCutPath
10
957.0452869
20
159.0293091
11
957.0452869
21
156.0293091
0
LINE
8
SIDE_outsideCutPath
10
957.0452869
20
156.0293091
11
963.0452869
21
156.0293091
0
LINE
8
SIDE_outsideCutPath
10
963.0452869
20
156.0293091
11
963.0452869
21
159.0293091
0
LINE
8
SIDE_outsideCutPath
10
963.0452869
20
159.0293091
11
969.0452869
21
159.0293091
0
LINE
8
SIDE_outsideCutPath
10
969.0452869
20
159.0293091
11
969.0452869
21
156.0293091
0
LINE
8
SIDE_outsideCutPath
10
969.0452869
20
156.0293091
11
975.0452869
21
156.0293091
0
LINE
8
SIDE_outsideCutPath
10
975.0452869
20
156.0293091
11
975.0452869
21
159.0293091
0
LINE
8
SIDE_outsideCutPath
10
975.0452869
20
159.0293091
11
981.0452869
21
159.0293091
0
LINE
8
SIDE_outsideCutPath
10
981.0452869
20
159.0293091
11
981.0452869
21
156.0293091
0
LINE
8
SIDE_outsideCutPath
10
981.0452869
20
156.0293091
11
989.0818696
21
156.0293091
0
LINE
8
SIDE_outsideCutPath
10
989.0818696
20
156.0293091
11
989.0818696
21
642.0293091
0
LINE
8
SIDE_outsideCutPath
10
989.0818696
20
642.0293091
11
835.0087043
21
642.0293091
0
LINE
8
SIDE_outsideCutPath
10
835.0087043
20
642.0293091
11
780.8432707
21
642.0293091
0
LINE
8
SIDE_outsideCutPath
10
780.8432707
20
642.0293091
11
702.7795337
21
642.0293091
0
LINE
8
SIDE_outsideCutPath
10
702.7795337
20
642.0293091
11
648.6141001
21
642.0293091
0
LINE
8
SIDE_outsideCutPath
10
648.6141001
20
642.0293091
11
340.4677695
21
642.0293091
0
LINE
8
SIDE_outsideCutPath
10
340.4677695
20
642.0293091
11
286.3023359
21
642.0293091
0
LINE
8
SIDE_outsideCutPath
10
286.3023359
20
642.0293091
11
208.2385989
21
642.0293091
0
LINE
8
SIDE_outsideCutPath
10
208.2385989
20
642.0293091
11
154.0731653
21
642.0293091
0
LINE
8
SIDE_outsideCutPath
10
154.0731653
20
642.0293091
11
0
21
642.0293091
0
ENDSEC
0
EOF