0
SECTION
2
HEADER
9
$INSUNITS
70
4
0
ENDSEC
0
SECTION
2
TABLES
0
TABLE
2
LTYPE
0
LTYPE
72
65
70
64
2
CONTINUOUS
3
______
73
0
40
0
0
ENDTAB
0
TABLE
2
LAYER
0
ENDTAB
0
ENDSEC
0
SECTION
2
ENTITIES
0
LINE
8
front_outsideCutPath
10
0
20
492
11
0
21
455.43075
0
LINE
8
front_outsideCutPath
10
0
20
455.43075
11
3
21
455.43075
0
LINE
8
front_outsideCutPath
10
3
20
455.43075
11
3
21
427.70665
0
LINE
8
front_outsideCutPath
10
3
20
427.70665
11
0
21
427.70665
0
LINE
8
front_outsideCutPath
10
0
20
427.70665
11
0
21
399.98255
0
LINE
8
front_outsideCutPath
10
0
20
399.98255
11
3
21
399.98255
0
LINE
8
front_outsideCutPath
10
3
20
399.98255
11
3
21
372.25845
0
LINE
8
front_outsideCutPath
10
3
20
372.25845
11
0
21
372.25845
0
LINE
8
front_outsideCutPath
10
0
20
372.25845
11
0
21
344.53435
0
LINE
8
front_outsideCutPath
10
0
20
344.53435
11
3
21
344.53435
0
LINE
8
front_outsideCutPath
10
3
20
344.53435
11
3
21
316.81025
0
LINE
8
front_outsideCutPath
10
3
20
316.81025
11
0
21
316.81025
0
LINE
8
front_outsideCutPath
10
0
20
316.81025
11
0
21
289.08615
0
LINE
8
front_outsideCutPath
10
0
20
289.08615
11
3
21
289.08615
0
LINE
8
front_outsideCutPath
10
3
20
289.08615
11
3
21
261.36205
0
LINE
8
front_outsideCutPath
10
3
20
261.36205
11
0
21
261.36205
0
LINE
8
front_outsideCutPath
10
0
20
261.36205
11
0
21
233.63795
0
LINE
8
front_outsideCutPath
10
0
20
233.63795
11
3
21
233.63795
0
LINE
8
front_outsideCutPath
10
3
20
233.63795
11
3
21
205.91385
0
LINE
8
front_outsideCutPath
10
3
20
205.91385
11
0
21
205.91385
0
LINE
8
front_outsideCutPath
10
0
20
205.91385
11
0
21
178.18975
0
LINE
8
front_outsideCutPath
10
0
20
178.18975
11
3
21
178.18975
0
LINE
8
front_outsideCutPath
10
3
20
178.18975
11
3
21
150.46565
0
LINE
8
front_outsideCutPath
10
3
20
150.46565
11
0
21
150.46565
0
LINE
8
front_outsideCutPath
10
0
20
150.46565
11
0
21
122.74155
0
LINE
8
front_outsideCutPath
10
0
20
122.74155
11
3
21
122.74155
0
LINE
8
front_outsideCutPath
10
3
20
122.74155
11
3
21
95.01745
0
LINE
8
front_outsideCutPath
10
3
20
95.01745
11
0
21
95.01745
0
LINE
8
front_outsideCutPath
10
0
20
95.01745
11
0
21
67.29335
0
LINE
8
front_outsideCutPath
10
0
20
67.29335
11
3
21
67.29335
0
LINE
8
front_outsideCutPath
10
3
20
67.29335
11
3
21
39.56925
0
LINE
8
front_outsideCutPath
10
3
20
39.56925
11
0
21
39.56925
0
LINE
8
front_outsideCutPath
10
0
20
39.56925
11
0
21
3
0
LINE
8
front_outsideCutPath
10
0
20
3
11
38.01745
21
3
0
LINE
8
front_outsideCutPath
10
38.01745
20
3
11
38.01745
21
6
0
LINE
8
front_outsideCutPath
10
38.01745
20
6
11
65.74155
21
6
0
LINE
8
front_outsideCutPath
10
65.74155
20
6
11
65.74155
21
3
0
LINE
8
front_outsideCutPath
10
65.74155
20
3
11
93.46565
21
3
0
LINE
8
front_outsideCutPath
10
93.46565
20
3
11
93.46565
21
6
0
LINE
8
front_outsideCutPath
10
93.46565
20
6
11
121.18975
21
6
0
LINE
8
front_outsideCutPath
10
121.18975
20
6
11
121.18975
21
3
0
LINE
8
front_outsideCutPath
10
121.18975
20
3
11
148.91385
21
3
0
LINE
8
front_outsideCutPath
10
148.91385
20
3
11
148.91385
21
6
0
LINE
8
front_outsideCutPath
10
148.91385
20
6
11
176.63795
21
6
0
LINE
8
front_outsideCutPath
10
176.63795
20
6
11
176.63795
21
3
0
LINE
8
front_outsideCutPath
10
176.63795
20
3
11
204.36205
21
3
0
LINE
8
front_outsideCutPath
10
204.36205
20
3
11
204.36205
21
6
0
LINE
8
front_outsideCutPath
10
204.36205
20
6
11
232.08615
21
6
0
LINE
8
front_outsideCutPath
10
232.08615
20
6
11
232.08615
21
3
0
LINE
8
front_outsideCutPath
10
232.08615
20
3
11
259.81025
21
3
0
LINE
8
front_outsideCutPath
10
259.81025
20
3
11
259.81025
21
6
0
LINE
8
front_outsideCutPath
10
259.81025
20
6
11
287.53435
21
6
0
LINE
8
front_outsideCutPath
10
287.53435
20
6
11
287.53435
21
3
0
LINE
8
front_outsideCutPath
10
287.53435
20
3
11
315.25845
21
3
0
LINE
8
front_outsideCutPath
10
315.25845
20
3
11
315.25845
21
6
0
LINE
8
front_outsideCutPath
10
315.25845
20
6
11
342.98255
21
6
0
LINE
8
front_outsideCutPath
10
342.98255
20
6
11
342.98255
21
3
0
LINE
8
front_outsideCutPath
10
342.98255
20
3
11
370.70665
21
3
0
LINE
8
front_outsideCutPath
10
370.70665
20
3
11
381
21
3
0
LINE
8
front_outsideCutPath
10
381
20
3
11
381
21
39.56925
0
LINE
8
front_outsideCutPath
10
381
20
39.56925
11
378
21
39.56925
0
LINE
8
front_outsideCutPath
10
378
20
39.56925
11
378
21
67.29335
0
LINE
8
front_outsideCutPath
10
378
20
67.29335
11
381
21
67.29335
0
LINE
8
front_outsideCutPath
10
381
20
67.29335
11
381
21
95.01745
0
LINE
8
front_outsideCutPath
10
381
20
95.01745
11
378
21
95.01745
0
LINE
8
front_outsideCutPath
10
378
20
95.01745
11
378
21
122.74155
0
LINE
8
front_outsideCutPath
10
378
20
122.74155
11
381
21
122.74155
0
LINE
8
front_outsideCutPath
10
381
20
122.74155
11
381
21
150.46565
0
LINE
8
front_outsideCutPath
10
381
20
150.46565
11
378
21
150.46565
0
LINE
8
front_outsideCutPath
10
378
20
150.46565
11
378
21
178.18975
0
LINE
8
front_outsideCutPath
10
378
20
178.18975
11
381
21
178.18975
0
LINE
8
front_outsideCutPath
10
381
20
178.18975
11
381
21
205.91385
0
LINE
8
front_outsideCutPath
10
381
20
205.91385
11
378
21
205.91385
0
LINE
8
front_outsideCutPath
10
378
20
205.91385
11
378
21
233.63795
0
LINE
8
front_outsideCutPath
10
378
20
233.63795
11
381
21
233.63795
0
LINE
8
front_outsideCutPath
10
381
20
233.63795
11
381
21
261.36205
0
LINE
8
front_outsideCutPath
10
381
20
261.36205
11
378
21
261.36205
0
LINE
8
front_outsideCutPath
10
378
20
261.36205
11
378
21
289.08615
0
LINE
8
front_outsideCutPath
10
378
20
289.08615
11
381
21
289.08615
0
LINE
8
front_outsideCutPath
10
381
20
289.08615
11
381
21
316.81025
0
LINE
8
front_outsideCutPath
10
381
20
316.81025
11
378
21
316.81025
0
LINE
8
front_outsideCutPath
10
378
20
316.81025
11
378
21
344.53435
0
LINE
8
front_outsideCutPath
10
378
20
344.53435
11
381
21
344.53435
0
LINE
8
front_outsideCutPath
10
381
20
344.53435
11
381
21
372.25845
0
LINE
8
front_outsideCutPath
10
381
20
372.25845
11
378
21
372.25845
0
LINE
8
front_outsideCutPath
10
378
20
372.25845
11
378
21
399.98255
0
LINE
8
front_outsideCutPath
10
378
20
399.98255
11
381
21
399.98255
0
LINE
8
front_outsideCutPath
10
381
20
399.98255
11
381
21
427.70665
0
LINE
8
front_outsideCutPath
10
381
20
427.70665
11
378
21
427.70665
0
LINE
8
front_outsideCutPath
10
378
20
427.70665
11
378
21
455.43075
0
LINE
8
front_outsideCutPath
10
378
20
455.43075
11
381
21
455.43075
0
LINE
8
front_outsideCutPath
10
381
20
455.43075
11
381
21
492
0
LINE
8
front_outsideCutPath
10
381
20
492
11
342.98255
21
492
0
LINE
8
front_outsideCutPath
10
342.98255
20
492
11
342.98255
21
489
0
LINE
8
front_outsideCutPath
10
342.98255
20
489
11
315.25845
21
489
0
LINE
8
front_outsideCutPath
10
315.25845
20
489
11
315.25845
21
492
0
LINE
8
front_outsideCutPath
10
315.25845
20
492
11
287.53435
21
492
0
LINE
8
front_outsideCutPath
10
287.53435
20
492
11
287.53435
21
489
0
LINE
8
front_outsideCutPath
10
287.53435
20
489
11
259.81025
21
489
0
LINE
8
front_outsideCutPath
10
259.81025
20
489
11
259.81025
21
492
0
LINE
8
front_outsideCutPath
10
259.81025
20
492
11
232.08615
21
492
0
LINE
8
front_outsideCutPath
10
232.08615
20
492
11
232.08615
21
489
0
LINE
8
front_outsideCutPath
10
232.08615
20
489
11
204.36205
21
489
0
LINE
8
front_outsideCutPath
10
204.36205
20
489
11
204.36205
21
492
0
LINE
8
front_outsideCutPath
10
204.36205
20
492
11
176.63795
21
492
0
LINE
8
front_outsideCutPath
10
176.63795
20
492
11
176.63795
21
489
0
LINE
8
front_outsideCutPath
10
176.63795
20
489
11
148.91385
21
489
0
LINE
8
front_outsideCutPath
10
148.91385
20
489
11
148.91385
21
492
0
LINE
8
front_outsideCutPath
10
148.91385
20
492
11
121.18975
21
492
0
LINE
8
front_outsideCutPath
10
121.18975
20
492
11
121.18975
21
489
0
LINE
8
front_outsideCutPath
10
121.18975
20
489
11
93.46565
21
489
0
LINE
8
front_outsideCutPath
10
93.46565
20
489
11
93.46565
21
492
0
LINE
8
front_outsideCutPath
10
93.46565
20
492
11
65.74155
21
492
0
LINE
8
front_outsideCutPath
10
65.74155
20
492
11
65.74155
21
489
0
LINE
8
front_outsideCutPath
10
65.74155
20
489
11
38.01745
21
489
0
LINE
8
front_outsideCutPath
10
38.01745
20
489
11
38.01745
21
492
0
LINE
8
front_outsideCutPath
10
38.01745
20
492
11
10.29335
21
492
0
LINE
8
front_outsideCutPath
10
10.29335
20
492
11
0
21
492
0
LINE
8
left_outsideCutPath
10
387
20
492
11
387
21
455.43075
0
LINE
8
left_outsideCutPath
10
387
20
455.43075
11
384
21
455.43075
0
LINE
8
left_outsideCutPath
10
384
20
455.43075
11
384
21
427.70665
0
LINE
8
left_outsideCutPath
10
384
20
427.70665
11
387
21
427.70665
0
LINE
8
left_outsideCutPath
10
387
20
427.70665
11
387
21
399.98255
0
LINE
8
left_outsideCutPath
10
387
20
399.98255
11
384
21
399.98255
0
LINE
8
left_outsideCutPath
10
384
20
399.98255
11
384
21
372.25845
0
LINE
8
left_outsideCutPath
10
384
20
372.25845
11
387
21
372.25845
0
LINE
8
left_outsideCutPath
10
387
20
372.25845
11
387
21
344.53435
0
LINE
8
left_outsideCutPath
10
387
20
344.53435
11
384
21
344.53435
0
LINE
8
left_outsideCutPath
10
384
20
344.53435
11
384
21
316.81025
0
LINE
8
left_outsideCutPath
10
384
20
316.81025
11
387
21
316.81025
0
LINE
8
left_outsideCutPath
10
387
20
316.81025
11
387
21
289.08615
0
LINE
8
left_outsideCutPath
10
387
20
289.08615
11
384
21
289.08615
0
LINE
8
left_outsideCutPath
10
384
20
289.08615
11
384
21
261.36205
0
LINE
8
left_outsideCutPath
10
384
20
261.36205
11
387
21
261.36205
0
LINE
8
left_outsideCutPath
10
387
20
261.36205
11
387
21
233.63795
0
LINE
8
left_outsideCutPath
10
387
20
233.63795
11
384
21
233.63795
0
LINE
8
left_outsideCutPath
10
384
20
233.63795
11
384
21
205.91385
0
LINE
8
left_outsideCutPath
10
384
20
205.91385
11
387
21
205.91385
0
LINE
8
left_outsideCutPath
10
387
20
205.91385
11
387
21
178.18975
0
LINE
8
left_outsideCutPath
10
387
20
178.18975
11
384
21
178.18975
0
LINE
8
left_outsideCutPath
10
384
20
178.18975
11
384
21
150.46565
0
LINE
8
left_outsideCutPath
10
384
20
150.46565
11
387
21
150.46565
0
LINE
8
left_outsideCutPath
10
387
20
150.46565
11
387
21
122.74155
0
LINE
8
left_outsideCutPath
10
387
20
122.74155
11
384
21
122.74155
0
LINE
8
left_outsideCutPath
10
384
20
122.74155
11
384
21
95.01745
0
LINE
8
left_outsideCutPath
10
384
20
95.01745
11
387
21
95.01745
0
LINE
8
left_outsideCutPath
10
387
20
95.01745
11
387
21
67.29335
0
LINE
8
left_outsideCutPath
10
387
20
67.29335
11
384
21
67.29335
0
LINE
8
left_outsideCutPath
10
384
20
67.29335
11
384
21
39.56925
0
LINE
8
left_outsideCutPath
10
384
20
39.56925
11
387
21
39.56925
0
LINE
8
left_outsideCutPath
10
387
20
39.56925
11
387
21
3
0
LINE
8
left_outsideCutPath
10
387
20
3
11
420.63795
21
3
0
LINE
8
left_outsideCutPath
10
420.63795
20
3
11
420.63795
21
6
0
LINE
8
left_outsideCutPath
10
420.63795
20
6
11
448.36205
21
6
0
LINE
8
left_outsideCutPath
10
448.36205
20
6
11
448.36205
21
3
0
LINE
8
left_outsideCutPath
10
448.36205
20
3
11
476.08615
21
3
0
LINE
8
left_outsideCutPath
10
476.08615
20
3
11
482
21
3
0
LINE
8
left_outsideCutPath
10
482
20
3
11
482
21
39.56925
0
LINE
8
left_outsideCutPath
10
482
20
39.56925
11
485
21
39.56925
0
LINE
8
left_outsideCutPath
10
485
20
39.56925
11
485
21
67.29335
0
LINE
8
left_outsideCutPath
10
485
20
67.29335
11
482
21
67.29335
0
LINE
8
left_outsideCutPath
10
482
20
67.29335
11
482
21
95.01745
0
LINE
8
left_outsideCutPath
10
482
20
95.01745
11
485
21
95.01745
0
LINE
8
left_outsideCutPath
10
485
20
95.01745
11
485
21
122.74155
0
LINE
8
left_outsideCutPath
10
485
20
122.74155
11
482
21
122.74155
0
LINE
8
left_outsideCutPath
10
482
20
122.74155
11
482
21
150.46565
0
LINE
8
left_outsideCutPath
10
482
20
150.46565
11
485
21
150.46565
0
LINE
8
left_outsideCutPath
10
485
20
150.46565
11
485
21
178.18975
0
LINE
8
left_outsideCutPath
10
485
20
178.18975
11
482
21
178.18975
0
LINE
8
left_outsideCutPath
10
482
20
178.18975
11
482
21
205.91385
0
LINE
8
left_outsideCutPath
10
482
20
205.91385
11
485
21
205.91385
0
LINE
8
left_outsideCutPath
10
485
20
205.91385
11
485
21
233.63795
0
LINE
8
left_outsideCutPath
10
485
20
233.63795
11
482
21
233.63795
0
LINE
8
left_outsideCutPath
10
482
20
233.63795
11
482
21
261.36205
0
LINE
8
left_outsideCutPath
10
482
20
261.36205
11
485
21
261.36205
0
LINE
8
left_outsideCutPath
10
485
20
261.36205
11
485
21
289.08615
0
LINE
8
left_outsideCutPath
10
485
20
289.08615
11
482
21
289.08615
0
LINE
8
left_outsideCutPath
10
482
20
289.08615
11
482
21
316.81025
0
LINE
8
left_outsideCutPath
10
482
20
316.81025
11
485
21
316.81025
0
LINE
8
left_outsideCutPath
10
485
20
316.81025
11
485
21
344.53435
0
LINE
8
left_outsideCutPath
10
485
20
344.53435
11
482
21
344.53435
0
LINE
8
left_outsideCutPath
10
482
20
344.53435
11
482
21
372.25845
0
LINE
8
left_outsideCutPath
10
482
20
372.25845
11
485
21
372.25845
0
LINE
8
left_outsideCutPath
10
485
20
372.25845
11
485
21
399.98255
0
LINE
8
left_outsideCutPath
10
485
20
399.98255
11
482
21
399.98255
0
LINE
8
left_outsideCutPath
10
482
20
399.98255
11
482
21
427.70665
0
LINE
8
left_outsideCutPath
10
482
20
427.70665
11
485
21
427.70665
0
LINE
8
left_outsideCutPath
10
485
20
427.70665
11
485
21
455.43075
0
LINE
8
left_outsideCutPath
10
485
20
455.43075
11
482
21
455.43075
0
LINE
8
left_outsideCutPath
10
482
20
455.43075
11
482
21
492
0
LINE
8
left_outsideCutPath
10
482
20
492
11
448.36205
21
492
0
LINE
8
left_outsideCutPath
10
448.36205
20
492
11
448.36205
21
489
0
LINE
8
left_outsideCutPath
10
448.36205
20
489
11
420.63795
21
489
0
LINE
8
left_outsideCutPath
10
420.63795
20
489
11
420.63795
21
492
0
LINE
8
left_outsideCutPath
10
420.63795
20
492
11
392.91385
21
492
0
LINE
8
left_outsideCutPath
10
392.91385
20
492
11
387
21
492
0
LINE
8
top_outsideCutPath
10
491
20
101
11
491
21
67.36205
0
LINE
8
top_outsideCutPath
10
491
20
67.36205
11
488
21
67.36205
0
LINE
8
top_outsideCutPath
10
488
20
67.36205
11
488
21
39.63795
0
LINE
8
top_outsideCutPath
10
488
20
39.63795
11
491
21
39.63795
0
LINE
8
top_outsideCutPath
10
491
20
39.63795
11
491
21
11.91385
0
LINE
8
top_outsideCutPath
10
491
20
11.91385
11
491
21
6
0
LINE
8
top_outsideCutPath
10
491
20
6
11
526.01745
21
6
0
LINE
8
top_outsideCutPath
10
526.01745
20
6
11
526.01745
21
3
0
LINE
8
top_outsideCutPath
10
526.01745
20
3
11
553.74155
21
3
0
LINE
8
top_outsideCutPath
10
553.74155
20
3
11
553.74155
21
6
0
LINE
8
top_outsideCutPath
10
553.74155
20
6
11
581.46565
21
6
0
LINE
8
top_outsideCutPath
10
581.46565
20
6
11
581.46565
21
3
0
LINE
8
top_outsideCutPath
10
581.46565
20
3
11
609.18975
21
3
0
LINE
8
top_outsideCutPath
10
609.18975
20
3
11
609.18975
21
6
0
LINE
8
top_outsideCutPath
10
609.18975
20
6
11
636.91385
21
6
0
LINE
8
top_outsideCutPath
10
636.91385
20
6
11
636.91385
21
3
0
LINE
8
top_outsideCutPath
10
636.91385
20
3
11
664.63795
21
3
0
LINE
8
top_outsideCutPath
10
664.63795
20
3
11
664.63795
21
6
0
LINE
8
top_outsideCutPath
10
664.63795
20
6
11
692.36205
21
6
0
LINE
8
top_outsideCutPath
10
692.36205
20
6
11
692.36205
21
3
0
LINE
8
top_outsideCutPath
10
692.36205
20
3
11
720.08615
21
3
0
LINE
8
top_outsideCutPath
10
720.08615
20
3
11
720.08615
21
6
0
LINE
8
top_outsideCutPath
10
720.08615
20
6
11
747.81025
21
6
0
LINE
8
top_outsideCutPath
10
747.81025
20
6
11
747.81025
21
3
0
LINE
8
top_outsideCutPath
10
747.81025
20
3
11
775.53435
21
3
0
LINE
8
top_outsideCutPath
10
775.53435
20
3
11
775.53435
21
6
0
LINE
8
top_outsideCutPath
10
775.53435
20
6
11
803.25845
21
6
0
LINE
8
top_outsideCutPath
10
803.25845
20
6
11
803.25845
21
3
0
LINE
8
top_outsideCutPath
10
803.25845
20
3
11
830.98255
21
3
0
LINE
8
top_outsideCutPath
10
830.98255
20
3
11
830.98255
21
6
0
LINE
8
top_outsideCutPath
10
830.98255
20
6
11
858.70665
21
6
0
LINE
8
top_outsideCutPath
10
858.70665
20
6
11
866
21
6
0
LINE
8
top_outsideCutPath
10
866
20
6
11
866
21
39.63795
0
LINE
8
top_outsideCutPath
10
866
20
39.63795
11
869
21
39.63795
0
LINE
8
top_outsideCutPath
10
869
20
39.63795
11
869
21
67.36205
0
LINE
8
top_outsideCutPath
10
869
20
67.36205
11
866
21
67.36205
0
LINE
8
top_outsideCutPath
10
866
20
67.36205
11
866
21
95.08615
0
LINE
8
top_outsideCutPath
10
866
20
95.08615
11
866
21
101
0
LINE
8
top_outsideCutPath
10
866
20
101
11
830.98255
21
101
0
LINE
8
top_outsideCutPath
10
830.98255
20
101
11
830.98255
21
104
0
LINE
8
top_outsideCutPath
10
830.98255
20
104
11
803.25845
21
104
0
LINE
8
top_outsideCutPath
10
803.25845
20
104
11
803.25845
21
101
0
LINE
8
top_outsideCutPath
10
803.25845
20
101
11
775.53435
21
101
0
LINE
8
top_outsideCutPath
10
775.53435
20
101
11
775.53435
21
104
0
LINE
8
top_outsideCutPath
10
775.53435
20
104
11
747.81025
21
104
0
LINE
8
top_outsideCutPath
10
747.81025
20
104
11
747.81025
21
101
0
LINE
8
top_outsideCutPath
10
747.81025
20
101
11
720.08615
21
101
0
LINE
8
top_outsideCutPath
10
720.08615
20
101
11
720.08615
21
104
0
LINE
8
top_outsideCutPath
10
720.08615
20
104
11
692.36205
21
104
0
LINE
8
top_outsideCutPath
10
692.36205
20
104
11
692.36205
21
101
0
LINE
8
top_outsideCutPath
10
692.36205
20
101
11
664.63795
21
101
0
LINE
8
top_outsideCutPath
10
664.63795
20
101
11
664.63795
21
104
0
LINE
8
top_outsideCutPath
10
664.63795
20
104
11
636.91385
21
104
0
LINE
8
top_outsideCutPath
10
636.91385
20
104
11
636.91385
21
101
0
LINE
8
top_outsideCutPath
10
636.91385
20
101
11
609.18975
21
101
0
LINE
8
top_outsideCutPath
10
609.18975
20
101
11
609.18975
21
104
0
LINE
8
top_outsideCutPath
10
609.18975
20
104
11
581.46565
21
104
0
LINE
8
top_outsideCutPath
10
581.46565
20
104
11
581.46565
21
101
0
LINE
8
top_outsideCutPath
10
581.46565
20
101
11
553.74155
21
101
0
LINE
8
top_outsideCutPath
10
553.74155
20
101
11
553.74155
21
104
0
LINE
8
top_outsideCutPath
10
553.74155
20
104
11
526.01745
21
104
0
LINE
8
top_outsideCutPath
10
526.01745
20
104
11
526.01745
21
101
0
LINE
8
top_outsideCutPath
10
526.01745
20
101
11
498.29335
21
101
0
LINE
8
top_outsideCutPath
10
498.29335
20
101
11
491
21
101
0
LINE
8
back_outsideCutPath
10
0
20
984
11
0
21
947.43075
0
LINE
8
back_outsideCutPath
10
0
20
947.43075
11
3
21
947.43075
0
LINE
8
back_outsideCutPath
10
3
20
947.43075
11
3
21
919.70665
0
LINE
8
back_outsideCutPath
10
3
20
919.70665
11
0
21
919.70665
0
LINE
8
back_outsideCutPath
10
0
20
919.70665
11
0
21
891.98255
0
LINE
8
back_outsideCutPath
10
0
20
891.98255
11
3
21
891.98255
0
LINE
8
back_outsideCutPath
10
3
20
891.98255
11
3
21
864.25845
0
LINE
8
back_outsideCutPath
10
3
20
864.25845
11
0
21
864.25845
0
LINE
8
back_outsideCutPath
10
0
20
864.25845
11
0
21
836.53435
0
LINE
8
back_outsideCutPath
10
0
20
836.53435
11
3
21
836.53435
0
LINE
8
back_outsideCutPath
10
3
20
836.53435
11
3
21
808.81025
0
LINE
8
back_outsideCutPath
10
3
20
808.81025
11
0
21
808.81025
0
LINE
8
back_outsideCutPath
10
0
20
808.81025
11
0
21
781.08615
0
LINE
8
back_outsideCutPath
10
0
20
781.08615
11
3
21
781.08615
0
LINE
8
back_outsideCutPath
10
3
20
781.08615
11
3
21
753.36205
0
LINE
8
back_outsideCutPath
10
3
20
753.36205
11
0
21
753.36205
0
LINE
8
back_outsideCutPath
10
0
20
753.36205
11
0
21
725.63795
0
LINE
8
back_outsideCutPath
10
0
20
725.63795
11
3
21
725.63795
0
LINE
8
back_outsideCutPath
10
3
20
725.63795
11
3
21
697.91385
0
LINE
8
back_outsideCutPath
10
3
20
697.91385
11
0
21
697.91385
0
LINE
8
back_outsideCutPath
10
0
20
697.91385
11
0
21
670.18975
0
LINE
8
back_outsideCutPath
10
0
20
670.18975
11
3
21
670.18975
0
LINE
8
back_outsideCutPath
10
3
20
670.18975
11
3
21
642.46565
0
LINE
8
back_outsideCutPath
10
3
20
642.46565
11
0
21
642.46565
0
LINE
8
back_outsideCutPath
10
0
20
642.46565
11
0
21
614.74155
0
LINE
8
back_outsideCutPath
10
0
20
614.74155
11
3
21
614.74155
0
LINE
8
back_outsideCutPath
10
3
20
614.74155
11
3
21
587.01745
0
LINE
8
back_outsideCutPath
10
3
20
587.01745
11
0
21
587.01745
0
LINE
8
back_outsideCutPath
10
0
20
587.01745
11
0
21
559.29335
0
LINE
8
back_outsideCutPath
10
0
20
559.29335
11
3
21
559.29335
0
LINE
8
back_outsideCutPath
10
3
20
559.29335
11
3
21
531.56925
0
LINE
8
back_outsideCutPath
10
3
20
531.56925
11
0
21
531.56925
0
LINE
8
back_outsideCutPath
10
0
20
531.56925
11
0
21
495
0
LINE
8
back_outsideCutPath
10
0
20
495
11
38.01745
21
495
0
LINE
8
back_outsideCutPath
10
38.01745
20
495
11
38.01745
21
498
0
LINE
8
back_outsideCutPath
10
38.01745
20
498
11
65.74155
21
498
0
LINE
8
back_outsideCutPath
10
65.74155
20
498
11
65.74155
21
495
0
LINE
8
back_outsideCutPath
10
65.74155
20
495
11
93.46565
21
495
0
LINE
8
back_outsideCutPath
10
93.46565
20
495
11
93.46565
21
498
0
LINE
8
back_outsideCutPath
10
93.46565
20
498
11
121.18975
21
498
0
LINE
8
back_outsideCutPath
10
121.18975
20
498
11
121.18975
21
495
0
LINE
8
back_outsideCutPath
10
121.18975
20
495
11
148.91385
21
495
0
LINE
8
back_outsideCutPath
10
148.91385
20
495
11
148.91385
21
498
0
LINE
8
back_outsideCutPath
10
148.91385
20
498
11
176.63795
21
498
0
LINE
8
back_outsideCutPath
10
176.63795
20
498
11
176.63795
21
495
0
LINE
8
back_outsideCutPath
10
176.63795
20
495
11
204.36205
21
495
0
LINE
8
back_outsideCutPath
10
204.36205
20
495
11
204.36205
21
498
0
LINE
8
back_outsideCutPath
10
204.36205
20
498
11
232.08615
21
498
0
LINE
8
back_outsideCutPath
10
232.08615
20
498
11
232.08615
21
495
0
LINE
8
back_outsideCutPath
10
232.08615
20
495
11
259.81025
21
495
0
LINE
8
back_outsideCutPath
10
259.81025
20
495
11
259.81025
21
498
0
LINE
8
back_outsideCutPath
10
259.81025
20
498
11
287.53435
21
498
0
LINE
8
back_outsideCutPath
10
287.53435
20
498
11
287.53435
21
495
0
LINE
8
back_outsideCutPath
10
287.53435
20
495
11
315.25845
21
495
0
LINE
8
back_outsideCutPath
10
315.25845
20
495
11
315.25845
21
498
0
LINE
8
back_outsideCutPath
10
315.25845
20
498
11
342.98255
21
498
0
LINE
8
back_outsideCutPath
10
342.98255
20
498
11
342.98255
21
495
0
LINE
8
back_outsideCutPath
10
342.98255
20
495
11
370.70665
21
495
0
LINE
8
back_outsideCutPath
10
370.70665
20
495
11
381
21
495
0
LINE
8
back_outsideCutPath
10
381
20
495
11
381
21
531.56925
0
LINE
8
back_outsideCutPath
10
381
20
531.56925
11
378
21
531.56925
0
LINE
8
back_outsideCutPath
10
378
20
531.56925
11
378
21
559.29335
0
LINE
8
back_outsideCutPath
10
378
20
559.29335
11
381
21
559.29335
0
LINE
8
back_outsideCutPath
10
381
20
559.29335
11
381
21
587.01745
0
LINE
8
back_outsideCutPath
10
381
20
587.01745
11
378
21
587.01745
0
LINE
8
back_outsideCutPath
10
378
20
587.01745
11
378
21
614.74155
0
LINE
8
back_outsideCutPath
10
378
20
614.74155
11
381
21
614.74155
0
LINE
8
back_outsideCutPath
10
381
20
614.74155
11
381
21
642.46565
0
LINE
8
back_outsideCutPath
10
381
20
642.46565
11
378
21
642.46565
0
LINE
8
back_outsideCutPath
10
378
20
642.46565
11
378
21
670.18975
0
LINE
8
back_outsideCutPath
10
378
20
670.18975
11
381
21
670.18975
0
LINE
8
back_outsideCutPath
10
381
20
670.18975
11
381
21
697.91385
0
LINE
8
back_outsideCutPath
10
381
20
697.91385
11
378
21
697.91385
0
LINE
8
back_outsideCutPath
10
378
20
697.91385
11
378
21
725.63795
0
LINE
8
back_outsideCutPath
10
378
20
725.63795
11
381
21
725.63795
0
LINE
8
back_outsideCutPath
10
381
20
725.63795
11
381
21
753.36205
0
LINE
8
back_outsideCutPath
10
381
20
753.36205
11
378
21
753.36205
0
LINE
8
back_outsideCutPath
10
378
20
753.36205
11
378
21
781.08615
0
LINE
8
back_outsideCutPath
10
378
20
781.08615
11
381
21
781.08615
0
LINE
8
back_outsideCutPath
10
381
20
781.08615
11
381
21
808.81025
0
LINE
8
back_outsideCutPath
10
381
20
808.81025
11
378
21
808.81025
0
LINE
8
back_outsideCutPath
10
378
20
808.81025
11
378
21
836.53435
0
LINE
8
back_outsideCutPath
10
378
20
836.53435
11
381
21
836.53435
0
LINE
8
back_outsideCutPath
10
381
20
836.53435
11
381
21
864.25845
0
LINE
8
back_outsideCutPath
10
381
20
864.25845
11
378
21
864.25845
0
LINE
8
back_outsideCutPath
10
378
20
864.25845
11
378
21
891.98255
0
LINE
8
back_outsideCutPath
10
378
20
891.98255
11
381
21
891.98255
0
LINE
8
back_outsideCutPath
10
381
20
891.98255
11
381
21
919.70665
0
LINE
8
back_outsideCutPath
10
381
20
919.70665
11
378
21
919.70665
0
LINE
8
back_outsideCutPath
10
378
20
919.70665
11
378
21
947.43075
0
LINE
8
back_outsideCutPath
10
378
20
947.43075
11
381
21
947.43075
0
LINE
8
back_outsideCutPath
10
381
20
947.43075
11
381
21
984
0
LINE
8
back_outsideCutPath
10
381
20
984
11
342.98255
21
984
0
LINE
8
back_outsideCutPath
10
342.98255
20
984
11
342.98255
21
981
0
LINE
8
back_outsideCutPath
10
342.98255
20
981
11
315.25845
21
981
0
LINE
8
back_outsideCutPath
10
315.25845
20
981
11
315.25845
21
984
0
LINE
8
back_outsideCutPath
10
315.25845
20
984
11
287.53435
21
984
0
LINE
8
back_outsideCutPath
10
287.53435
20
984
11
287.53435
21
981
0
LINE
8
back_outsideCutPath
10
287.53435
20
981
11
259.81025
21
981
0
LINE
8
back_outsideCutPath
10
259.81025
20
981
11
259.81025
21
984
0
LINE
8
back_outsideCutPath
10
259.81025
20
984
11
232.08615
21
984
0
LINE
8
back_outsideCutPath
10
232.08615
20
984
11
232.08615
21
981
0
LINE
8
back_outsideCutPath
10
232.08615
20
981
11
204.36205
21
981
0
LINE
8
back_outsideCutPath
10
204.36205
20
981
11
204.36205
21
984
0
LINE
8
back_outsideCutPath
10
204.36205
20
984
11
176.63795
21
984
0
LINE
8
back_outsideCutPath
10
176.63795
20
984
11
176.63795
21
981
0
LINE
8
back_outsideCutPath
10
176.63795
20
981
11
148.91385
21
981
0
LINE
8
back_outsideCutPath
10
148.91385
20
981
11
148.91385
21
984
0
LINE
8
back_outsideCutPath
10
148.91385
20
984
11
121.18975
21
984
0
LINE
8
back_outsideCutPath
10
121.18975
20
984
11
121.18975
21
981
0
LINE
8
back_outsideCutPath
10
121.18975
20
981
11
93.46565
21
981
0
LINE
8
back_outsideCutPath
10
93.46565
20
981
11
93.46565
21
984
0
LINE
8
back_outsideCutPath
10
93.46565
20
984
11
65.74155
21
984
0
LINE
8
back_outsideCutPath
10
65.74155
20
984
11
65.74155
21
981
0
LINE
8
back_outsideCutPath
10
65.74155
20
981
11
38.01745
21
981
0
LINE
8
back_outsideCutPath
10
38.01745
20
981
11
38.01745
21
984
0
LINE
8
back_outsideCutPath
10
38.01745
20
984
11
10.29335
21
984
0
LINE
8
back_outsideCutPath
10
10.29335
20
984
11
0
21
984
0
LINE
8
right_outsideCutPath
10
387
20
984
11
387
21
947.43075
0
LINE
8
right_outsideCutPath
10
387
20
947.43075
11
384
21
947.43075
0
LINE
8
right_outsideCutPath
10
384
20
947.43075
11
384
21
919.70665
0
LINE
8
right_outsideCutPath
10
384
20
919.70665
11
387
21
919.70665
0
LINE
8
right_outsideCutPath
10
387
20
919.70665
11
387
21
891.98255
0
LINE
8
right_outsideCutPath
10
387
20
891.98255
11
384
21
891.98255
0
LINE
8
right_outsideCutPath
10
384
20
891.98255
11
384
21
864.25845
0
LINE
8
right_outsideCutPath
10
384
20
864.25845
11
387
21
864.25845
0
LINE
8
right_outsideCutPath
10
387
20
864.25845
11
387
21
836.53435
0
LINE
8
right_outsideCutPath
10
387
20
836.53435
11
384
21
836.53435
0
LINE
8
right_outsideCutPath
10
384
20
836.53435
11
384
21
808.81025
0
LINE
8
right_outsideCutPath
10
384
20
808.81025
11
387
21
808.81025
0
LINE
8
right_outsideCutPath
10
387
20
808.81025
11
387
21
781.08615
0
LINE
8
right_outsideCutPath
10
387
20
781.08615
11
384
21
781.08615
0
LINE
8
right_outsideCutPath
10
384
20
781.08615
11
384
21
753.36205
0
LINE
8
right_outsideCutPath
10
384
20
753.36205
11
387
21
753.36205
0
LINE
8
right_outsideCutPath
10
387
20
753.36205
11
387
21
725.63795
0
LINE
8
right_outsideCutPath
10
387
20
725.63795
11
384
21
725.63795
0
LINE
8
right_outsideCutPath
10
384
20
725.63795
11
384
21
697.91385
0
LINE
8
right_outsideCutPath
10
384
20
697.91385
11
387
21
697.91385
0
LINE
8
right_outsideCutPath
10
387
20
697.91385
11
387
21
670.18975
0
LINE
8
right_outsideCutPath
10
387
20
670.18975
11
384
21
670.18975
0
LINE
8
right_outsideCutPath
10
384
20
670.18975
11
384
21
642.46565
0
LINE
8
right_outsideCutPath
10
384
20
642.46565
11
387
21
642.46565
0
LINE
8
right_outsideCutPath
10
387
20
642.46565
11
387
21
614.74155
0
LINE
8
right_outsideCutPath
10
387
20
614.74155
11
384
21
614.74155
0
LINE
8
right_outsideCutPath
10
384
20
614.74155
11
384
21
587.01745
0
LINE
8
right_outsideCutPath
10
384
20
587.01745
11
387
21
587.01745
0
LINE
8
right_outsideCutPath
10
387
20
587.01745
11
387
21
559.29335
0
LINE
8
right_outsideCutPath
10
387
20
559.29335
11
384
21
559.29335
0
LINE
8
right_outsideCutPath
10
384
20
559.29335
11
384
21
531.56925
0
LINE
8
right_outsideCutPath
10
384
20
531.56925
11
387
21
531.56925
0
LINE
8
right_outsideCutPath
10
387
20
531.56925
11
387
21
495
0
LINE
8
right_outsideCutPath
10
387
20
495
11
420.63795
21
495
0
LINE
8
right_outsideCutPath
10
420.63795
20
495
11
420.63795
21
498
0
LINE
8
right_outsideCutPath
10
420.63795
20
498
11
448.36205
21
498
0
LINE
8
right_outsideCutPath
10
448.36205
20
498
11
448.36205
21
495
0
LINE
8
right_outsideCutPath
10
448.36205
20
495
11
476.08615
21
495
0
LINE
8
right_outsideCutPath
10
476.08615
20
495
11
482
21
495
0
LINE
8
right_outsideCutPath
10
482
20
495
11
482
21
531.56925
0
LINE
8
right_outsideCutPath
10
482
20
531.56925
11
485
21
531.56925
0
LINE
8
right_outsideCutPath
10
485
20
531.56925
11
485
21
559.29335
0
LINE
8
right_outsideCutPath
10
485
20
559.29335
11
482
21
559.29335
0
LINE
8
right_outsideCutPath
10
482
20
559.29335
11
482
21
587.01745
0
LINE
8
right_outsideCutPath
10
482
20
587.01745
11
485
21
587.01745
0
LINE
8
right_outsideCutPath
10
485
20
587.01745
11
485
21
614.74155
0
LINE
8
right_outsideCutPath
10
485
20
614.74155
11
482
21
614.74155
0
LINE
8
right_outsideCutPath
10
482
20
614.74155
11
482
21
642.46565
0
LINE
8
right_outsideCutPath
10
482
20
642.46565
11
485
21
642.46565
0
LINE
8
right_outsideCutPath
10
485
20
642.46565
11
485
21
670.18975
0
LINE
8
right_outsideCutPath
10
485
20
670.18975
11
482
21
670.18975
0
LINE
8
right_outsideCutPath
10
482
20
670.18975
11
482
21
697.91385
0
LINE
8
right_outsideCutPath
10
482
20
697.91385
11
485
21
697.91385
0
LINE
8
right_outsideCutPath
10
485
20
697.91385
11
485
21
725.63795
0
LINE
8
right_outsideCutPath
10
485
20
725.63795
11
482
21
725.63795
0
LINE
8
right_outsideCutPath
10
482
20
725.63795
11
482
21
753.36205
0
LINE
8
right_outsideCutPath
10
482
20
753.36205
11
485
21
753.36205
0
LINE
8
right_outsideCutPath
10
485
20
753.36205
11
485
21
781.08615
0
LINE
8
right_outsideCutPath
10
485
20
781.08615
11
482
21
781.08615
0
LINE
8
right_outsideCutPath
10
482
20
781.08615
11
482
21
808.81025
0
LINE
8
right_outsideCutPath
10
482
20
808.81025
11
485
21
808.81025
0
LINE
8
right_outsideCutPath
10
485
20
808.81025
11
485
21
836.53435
0
LINE
8
right_outsideCutPath
10
485
20
836.53435
11
482
21
836.53435
0
LINE
8
right_outsideCutPath
10
482
20
836.53435
11
482
21
864.25845
0
LINE
8
right_outsideCutPath
10
482
20
864.25845
11
485
21
864.25845
0
LINE
8
right_outsideCutPath
10
485
20
864.25845
11
485
21
891.98255
0
LINE
8
right_outsideCutPath
10
485
20
891.98255
11
482
21
891.98255
0
LINE
8
right_outsideCutPath
10
482
20
891.98255
11
482
21
919.70665
0
LINE
8
right_outsideCutPath
10
482
20
919.70665
11
485
21
919.70665
0
LINE
8
right_outsideCutPath
10
485
20
919.70665
11
485
21
947.43075
0
LINE
8
right_outsideCutPath
10
485
20
947.43075
11
482
21
947.43075
0
LINE
8
right_outsideCutPath
10
482
20
947.43075
11
482
21
984
0
LINE
8
right_outsideCutPath
10
482
20
984
11
448.36205
21
984
0
LINE
8
right_outsideCutPath
10
448.36205
20
984
11
448.36205
21
981
0
LINE
8
right_outsideCutPath
10
448.36205
20
981
11
420.63795
21
981
0
LINE
8
right_outsideCutPath
10
420.63795
20
981
11
420.63795
21
984
0
LINE
8
right_outsideCutPath
10
420.63795
20
984
11
392.91385
21
984
0
LINE
8
right_outsideCutPath
10
392.91385
20
984
11
387
21
984
0
LINE
8
bottom_outsideCutPath
10
491
20
205
11
491
21
171.36205
0
LINE
8
bottom_outsideCutPath
10
491
20
171.36205
11
488
21
171.36205
0
LINE
8
bottom_outsideCutPath
10
488
20
171.36205
11
488
21
143.63795
0
LINE
8
bottom_outsideCutPath
10
488
20
143.63795
11
491
21
143.63795
0
LINE
8
bottom_outsideCutPath
10
491
20
143.63795
11
491
21
115.91385
0
LINE
8
bottom_outsideCutPath
10
491
20
115.91385
11
491
21
110
0
LINE
8
bottom_outsideCutPath
10
491
20
110
11
526.01745
21
110
0
LINE
8
bottom_outsideCutPath
10
526.01745
20
110
11
526.01745
21
107
0
LINE
8
bottom_outsideCutPath
10
526.01745
20
107
11
553.74155
21
107
0
LINE
8
bottom_outsideCutPath
10
553.74155
20
107
11
553.74155
21
110
0
LINE
8
bottom_outsideCutPath
10
553.74155
20
110
11
581.46565
21
110
0
LINE
8
bottom_outsideCutPath
10
581.46565
20
110
11
581.46565
21
107
0
LINE
8
bottom_outsideCutPath
10
581.46565
20
107
11
609.18975
21
107
0
LINE
8
bottom_outsideCutPath
10
609.18975
20
107
11
609.18975
21
110
0
LINE
8
bottom_outsideCutPath
10
609.18975
20
110
11
636.91385
21
110
0
LINE
8
bottom_outsideCutPath
10
636.91385
20
110
11
636.91385
21
107
0
LINE
8
bottom_outsideCutPath
10
636.91385
20
107
11
664.63795
21
107
0
LINE
8
bottom_outsideCutPath
10
664.63795
20
107
11
664.63795
21
110
0
LINE
8
bottom_outsideCutPath
10
664.63795
20
110
11
692.36205
21
110
0
LINE
8
bottom_outsideCutPath
10
692.36205
20
110
11
692.36205
21
107
0
LINE
8
bottom_outsideCutPath
10
692.36205
20
107
11
720.08615
21
107
0
LINE
8
bottom_outsideCutPath
10
720.08615
20
107
11
720.08615
21
110
0
LINE
8
bottom_outsideCutPath
10
720.08615
20
110
11
747.81025
21
110
0
LINE
8
bottom_outsideCutPath
10
747.81025
20
110
11
747.81025
21
107
0
LINE
8
bottom_outsideCutPath
10
747.81025
20
107
11
775.53435
21
107
0
LINE
8
bottom_outsideCutPath
10
775.53435
20
107
11
775.53435
21
110
0
LINE
8
bottom_outsideCutPath
10
775.53435
20
110
11
803.25845
21
110
0
LINE
8
bottom_outsideCutPath
10
803.25845
20
110
11
803.25845
21
107
0
LINE
8
bottom_outsideCutPath
10
803.25845
20
107
11
830.98255
21
107
0
LINE
8
bottom_outsideCutPath
10
830.98255
20
107
11
830.98255
21
110
0
LINE
8
bottom_outsideCutPath
10
830.98255
20
110
11
858.70665
21
110
0
LINE
8
bottom_outsideCutPath
10
858.70665
20
110
11
866
21
110
0
LINE
8
bottom_outsideCutPath
10
866
20
110
11
866
21
143.63795
0
LINE
8
bottom_outsideCutPath
10
866
20
143.63795
11
869
21
143.63795
0
LINE
8
bottom_outsideCutPath
10
869
20
143.63795
11
869
21
171.36205
0
LINE
8
bottom_outsideCutPath
10
869
20
171.36205
11
866
21
171.36205
0
LINE
8
bottom_outsideCutPath
10
866
20
171.36205
11
866
21
199.08615
0
LINE
8
bottom_outsideCutPath
10
866
20
199.08615
11
866
21
205
0
LINE
8
bottom_outsideCutPath
10
866
20
205
11
830.98255
21
205
0
LINE
8
bottom_outsideCutPath
10
830.98255
20
205
11
830.98255
21
208
0
LINE
8
bottom_outsideCutPath
10
830.98255
20
208
11
803.25845
21
208
0
LINE
8
bottom_outsideCutPath
10
803.25845
20
208
11
803.25845
21
205
0
LINE
8
bottom_outsideCutPath
10
803.25845
20
205
11
775.53435
21
205
0
LINE
8
bottom_outsideCutPath
10
775.53435
20
205
11
775.53435
21
208
0
LINE
8
bottom_outsideCutPath
10
775.53435
20
208
11
747.81025
21
208
0
LINE
8
bottom_outsideCutPath
10
747.81025
20
208
11
747.81025
21
205
0
LINE
8
bottom_outsideCutPath
10
747.81025
20
205
11
720.08615
21
205
0
LINE
8
bottom_outsideCutPath
10
720.08615
20
205
11
720.08615
21
208
0
LINE
8
bottom_outsideCutPath
10
720.08615
20
208
11
692.36205
21
208
0
LINE
8
bottom_outsideCutPath
10
692.36205
20
208
11
692.36205
21
205
0
LINE
8
bottom_outsideCutPath
10
692.36205
20
205
11
664.63795
21
205
0
LINE
8
bottom_outsideCutPath
10
664.63795
20
205
11
664.63795
21
208
0
LINE
8
bottom_outsideCutPath
10
664.63795
20
208
11
636.91385
21
208
0
LINE
8
bottom_outsideCutPath
10
636.91385
20
208
11
636.91385
21
205
0
LINE
8
bottom_outsideCutPath
10
636.91385
20
205
11
609.18975
21
205
0
LINE
8
bottom_outsideCutPath
10
609.18975
20
205
11
609.18975
21
208
0
LINE
8
bottom_outsideCutPath
10
609.18975
20
208
11
581.46565
21
208
0
LINE
8
bottom_outsideCutPath
10
581.46565
20
208
11
581.46565
21
205
0
LINE
8
bottom_outsideCutPath
10
581.46565
20
205
11
553.74155
21
205
0
LINE
8
bottom_outsideCutPath
10
553.74155
20
205
11
553.74155
21
208
0
LINE
8
bottom_outsideCutPath
10
553.74155
20
208
11
526.01745
21
208
0
LINE
8
bottom_outsideCutPath
10
526.01745
20
208
11
526.01745
21
205
0
LINE
8
bottom_outsideCutPath
10
526.01745
20
205
11
498.29335
21
205
0
LINE
8
bottom_outsideCutPath
10
498.29335
20
205
11
491
21
205
0
ENDSEC
0
EOF